<?xml version="1.0" encoding="UTF-8"?>
<!DOCTYPE svg PUBLIC "-//W3C//DTD SVG 1.1//EN" "http://www.w3.org/Graphics/SVG/1.1/DTD/svg11.dtd">
<svg xmlns="http://www.w3.org/2000/svg" version="1.1" width="277px" height="350px" style="shape-rendering:geometricPrecision; text-rendering:geometricPrecision; image-rendering:optimizeQuality; fill-rule:evenodd; clip-rule:evenodd" xmlns:xlink="http://www.w3.org/1999/xlink">
<g><path style="opacity:0.051" fill="#161616" d="M 138.5,10.5 C 135.141,8.51305 131.475,8.01305 127.5,9C 126.944,9.38258 126.611,9.88258 126.5,10.5C 125.833,11.1667 125.167,11.8333 124.5,12.5C 124.297,10.6096 124.963,9.10963 126.5,8C 130.167,7.33333 133.833,7.33333 137.5,8C 138.252,8.67076 138.586,9.5041 138.5,10.5 Z"/></g>
<g><path style="opacity:0.987" fill="#0a0a09" d="M 141.5,22.5 C 141.446,24.632 140.446,25.9653 138.5,26.5C 139.969,24.8947 139.635,24.3947 137.5,25C 136.303,28.0615 136.803,30.8948 139,33.5C 139.833,60.1584 140.333,60.1584 140.5,33.5C 141.329,40.3213 141.829,47.3213 142,54.5C 143.094,56.0779 143.928,57.7446 144.5,59.5C 143.542,59.0472 142.708,58.3805 142,57.5C 141.833,57.8333 141.667,58.1667 141.5,58.5C 141.553,66.765 141.719,75.0983 142,83.5C 142.022,87.3251 143.522,90.3251 146.5,92.5C 150.742,93.9676 155.242,94.6343 160,94.5C 167.562,93.4306 175.062,93.2639 182.5,94C 183,94.5 183.5,95 184,95.5C 184.5,105.161 184.666,114.828 184.5,124.5C 201.17,124.667 217.837,124.5 234.5,124C 233.944,123.617 233.611,123.117 233.5,122.5C 235.048,122.821 235.715,123.821 235.5,125.5C 236.496,139.323 236.829,153.323 236.5,167.5C 240.846,167.334 245.179,167.501 249.5,168C 251.426,168.422 252.426,169.589 252.5,171.5C 251.509,178.313 251.175,185.313 251.5,192.5C 250.5,192.5 249.5,192.5 248.5,192.5C 248.571,197.121 250.905,199.954 255.5,201C 257.527,203.094 259.194,205.427 260.5,208C 260.377,212.052 260.21,216.219 260,220.5C 258.293,225.041 255.126,228.041 250.5,229.5C 248.914,231.173 248.247,233.173 248.5,235.5C 249.5,235.5 250.5,235.5 251.5,235.5C 251.119,242.905 251.452,248.238 252.5,251.5C 253.814,253.895 253.814,256.395 252.5,259C 247.339,260.696 242.173,260.863 237,259.5C 236.722,260.416 236.222,261.082 235.5,261.5C 235.5,260.5 235.5,259.5 235.5,258.5C 241.352,258.949 247.019,258.449 252.5,257C 246.252,257.414 239.919,257.581 233.5,257.5C 233.5,272.833 233.5,288.167 233.5,303.5C 195.654,304.216 196.321,304.216 235.5,303.5C 234.685,305.302 233.185,306.302 231,306.5C 215.772,306.344 200.605,306.344 185.5,306.5C 190.745,304.708 196.412,303.874 202.5,304C 196.509,303.501 190.509,303.334 184.5,303.5C 184.807,313.582 184.474,323.582 183.5,333.5C 172.801,333.788 162.134,333.454 151.5,332.5C 147.796,333.369 145.129,335.536 143.5,339C 136.358,343.255 129.025,343.588 121.5,340C 119.595,338.185 117.928,336.185 116.5,334C 115.271,333.219 113.938,332.719 112.5,332.5C 101.866,333.454 91.1993,333.788 80.5,333.5C 79.5259,323.582 79.1926,313.582 79.5,303.5C 62.8333,303.5 46.1667,303.5 29.5,303.5C 29.5,288.167 29.5,272.833 29.5,257.5C 23.773,257.74 18.1064,257.407 12.5,256.5C 12.3303,247.725 12.8303,239.059 14,230.5C 11.2028,228.758 8.5361,226.758 6,224.5C 3.42535,219.012 2.92535,213.346 4.5,207.5C 4.03017,206.537 3.3635,206.537 2.5,207.5C 4.13628,202.025 7.46961,197.858 12.5,195C 11.8095,193.933 11.3095,192.766 11,191.5C 10.3333,184.5 10.3333,177.5 11,170.5C 11.8159,169.177 12.9826,168.511 14.5,168.5C 14.3893,169.117 14.056,169.617 13.5,170C 18.8229,170.499 24.1563,170.666 29.5,170.5C 29.5,155.167 29.5,139.833 29.5,124.5C 46.1667,124.5 62.8333,124.5 79.5,124.5C 79.3335,114.828 79.5002,105.161 80,95.5C 80.5,95 81,94.5 81.5,94C 91.0526,94.1107 100.719,94.1107 110.5,94C 112.833,93.6667 115.167,93.3333 117.5,93C 118.304,91.2287 119.471,89.7287 121,88.5C 121.333,78.8333 121.667,69.1667 122,59.5C 122.973,57.6079 123.64,55.6079 124,53.5C 124.021,44.8717 124.854,36.3717 126.5,28C 125.921,25.8063 125.254,23.6397 124.5,21.5C 125.33,17.8514 125.996,14.1847 126.5,10.5C 129.445,9.53248 132.445,9.36581 135.5,10C 137.779,14.1706 139.279,18.6706 140,23.5C 140.383,22.944 140.883,22.6107 141.5,22.5 Z M 97.5,125.5 C 96.8333,122.833 96.1667,120.167 95.5,117.5C 95.5,115.5 95.5,113.5 95.5,111.5C 96.8333,111.5 98.1667,111.5 99.5,111.5C 99.966,116.43 99.2994,121.097 97.5,125.5 Z M 105.5,112.5 C 106.797,113.849 106.63,115.182 105,116.5C 104.421,115.072 104.588,113.738 105.5,112.5 Z M 229.5,129.5 C 229.663,131.857 229.497,134.19 229,136.5C 228.623,135.058 227.79,134.058 226.5,133.5C 226.489,131.983 225.823,130.816 224.5,130C 225.416,129.626 226.25,129.126 227,128.5C 227.671,129.252 228.504,129.586 229.5,129.5 Z M 34.5,129.5 C 36.1992,129.34 37.8659,129.506 39.5,130C 37.6411,131.558 36.1411,133.391 35,135.5C 34.5045,133.527 34.3379,131.527 34.5,129.5 Z M 84.5,155.5 C 92.208,157.091 92.208,158.757 84.5,160.5C 84.5,158.833 84.5,157.167 84.5,155.5 Z M 35.5,163.5 C 37.3003,164.895 37.6336,166.561 36.5,168.5C 35.0271,166.831 34.6938,165.164 35.5,163.5 Z M 8.5,210.5 C 9.74319,213.633 10.2432,216.967 10,220.5C 7.87442,217.352 7.37442,214.019 8.5,210.5 Z M 174.5,225.5 C 173.402,224.399 173.235,223.066 174,221.5C 175.011,222.337 176.178,222.67 177.5,222.5C 177.5,224.167 177.5,225.833 177.5,227.5C 175.821,227.715 174.821,227.048 174.5,225.5 Z M 191.5,235.5 C 194.403,237.245 194.07,238.245 190.5,238.5C 189.5,238.333 188.5,238.167 187.5,238C 188.756,237.583 189.423,236.75 189.5,235.5C 189.938,234.494 190.604,234.494 191.5,235.5 Z M 34.5,259.5 C 37.0728,259.148 39.4062,259.648 41.5,261C 39.3333,263.167 37.1667,265.333 35,267.5C 34.5026,264.854 34.3359,262.187 34.5,259.5 Z M 229.5,259.5 C 229.5,262.5 229.5,265.5 229.5,268.5C 227.359,265.528 224.692,263.028 221.5,261C 223.937,259.625 226.603,259.125 229.5,259.5 Z M 173.5,269.5 C 175.5,269.5 177.5,269.5 179.5,269.5C 179.5,272.5 179.5,275.5 179.5,278.5C 177.533,278.261 175.699,278.594 174,279.5C 173.502,276.183 173.335,272.85 173.5,269.5 Z M 85.5,269.5 C 86.7969,271.693 86.7969,274.027 85.5,276.5C 84.7666,274.408 84.7666,272.075 85.5,269.5 Z M 34.5,292.5 C 35.793,293.842 36.6264,295.509 37,297.5C 37.9138,296.346 38.7471,296.513 39.5,298C 35.0748,298.956 33.4082,297.123 34.5,292.5 Z M 228.5,291.5 C 229.468,293.607 229.802,295.941 229.5,298.5C 227.801,298.66 226.134,298.494 224.5,298C 226.232,296.028 227.565,293.861 228.5,291.5 Z"/></g>
<g><path style="opacity:0.996" fill="#3788d9" d="M 129.5,12.5 C 131.467,12.2606 133.301,12.5939 135,13.5C 136.079,16.0627 136.579,18.7294 136.5,21.5C 133.5,21.5 130.5,21.5 127.5,21.5C 127.207,18.2457 127.874,15.2457 129.5,12.5 Z"/></g>
<g><path style="opacity:0.208" fill="#4d4e4e" d="M 138.5,10.5 C 140.281,14.1998 141.281,18.1998 141.5,22.5C 140.883,22.6107 140.383,22.944 140,23.5C 139.279,18.6706 137.779,14.1706 135.5,10C 132.445,9.36581 129.445,9.53248 126.5,10.5C 126.611,9.88258 126.944,9.38258 127.5,9C 131.475,8.01305 135.141,8.51305 138.5,10.5 Z"/></g>
<g><path style="opacity:0.663" fill="#5a5c5d" d="M 138.5,26.5 C 139.167,28.8333 139.833,31.1667 140.5,33.5C 140.333,60.1584 139.833,60.1584 139,33.5C 136.803,30.8948 136.303,28.0615 137.5,25C 139.635,24.3947 139.969,24.8947 138.5,26.5 Z"/></g>
<g><path style="opacity:0.996" fill="#3580d0" d="M 129.5,24.5 C 131.167,24.5 132.833,24.5 134.5,24.5C 133.958,28.5443 134.791,32.211 137,35.5C 137.667,42.1667 137.667,48.8333 137,55.5C 133.595,52.9232 130.262,52.9232 127,55.5C 126.333,48.5 126.333,41.5 127,34.5C 129.164,31.5527 129.998,28.2194 129.5,24.5 Z"/></g>
<g><path style="opacity:0.996" fill="#3281d6" d="M 137.5,61.5 C 133.629,61.815 129.962,61.4816 126.5,60.5C 128.087,56.9443 130.754,55.7777 134.5,57C 136.141,58.129 137.141,59.629 137.5,61.5 Z"/></g>
<g><path style="opacity:0.996" fill="#1b4677" d="M 126.5,60.5 C 129.962,61.4816 133.629,61.815 137.5,61.5C 136.469,62.2463 134.636,62.5796 132,62.5C 129.833,62.1667 127.667,61.8333 125.5,61.5C 125.624,60.8933 125.957,60.56 126.5,60.5 Z"/></g>
<g><path style="opacity:0.992" fill="#377dcc" d="M 135.5,65.5 C 136.568,64.5655 137.901,64.2322 139.5,64.5C 139.808,66.924 139.474,69.2573 138.5,71.5C 137.792,69.2549 136.792,67.2549 135.5,65.5 Z"/></g>
<g><path style="opacity:0.984" fill="#357bd0" d="M 124.5,64.5 C 125.873,64.3433 127.207,64.51 128.5,65C 127.072,66.9162 126.072,69.0829 125.5,71.5C 124.526,69.2573 124.192,66.924 124.5,64.5 Z"/></g>
<g><path style="opacity:0.818" fill="#3b3c3b" d="M 144.5,59.5 C 143.687,68.1564 143.52,76.8231 144,85.5C 144.847,87.1932 145.68,88.8599 146.5,90.5C 146.5,91.1667 146.5,91.8333 146.5,92.5C 143.522,90.3251 142.022,87.3251 142,83.5C 141.719,75.0983 141.553,66.765 141.5,58.5C 141.667,58.1667 141.833,57.8333 142,57.5C 142.708,58.3805 143.542,59.0472 144.5,59.5 Z"/></g>
<g><path style="opacity:0.984" fill="#f5f6f7" d="M 130.5,66.5 C 132.017,66.5106 133.184,67.1772 134,68.5C 134.497,71.146 134.664,73.8127 134.5,76.5C 132.833,76.5 131.167,76.5 129.5,76.5C 129.253,73.0613 129.586,69.728 130.5,66.5 Z"/></g>
<g><path style="opacity:0.91" fill="#aca1aa" d="M 130.5,83.5 C 131.675,83.281 132.675,83.6143 133.5,84.5C 131.948,85.7979 130.948,85.4646 130.5,83.5 Z"/></g>
<g><path style="opacity:0.022" fill="#070707" d="M 146.5,90.5 C 159.092,91.3141 171.758,91.8141 184.5,92C 185.252,92.6708 185.586,93.5041 185.5,94.5C 184.711,94.2172 184.044,93.7172 183.5,93C 171.171,92.5001 158.838,92.3335 146.5,92.5C 146.5,91.8333 146.5,91.1667 146.5,90.5 Z"/></g>
<g><path style="opacity:0.283" fill="#434343" d="M 126.5,10.5 C 125.996,14.1847 125.33,17.8514 124.5,21.5C 125.254,23.6397 125.921,25.8063 126.5,28C 124.854,36.3717 124.021,44.8717 124,53.5C 123.64,55.6079 122.973,57.6079 122,59.5C 121.667,69.1667 121.333,78.8333 121,88.5C 119.471,89.7287 118.304,91.2287 117.5,93C 115.167,93.3333 112.833,93.6667 110.5,94C 100.719,94.1107 91.0526,94.1107 81.5,94C 81,94.5 80.5,95 80,95.5C 79.5002,105.161 79.3335,114.828 79.5,124.5C 62.8333,124.5 46.1667,124.5 29.5,124.5C 29.5,139.833 29.5,155.167 29.5,170.5C 24.1563,170.666 18.8229,170.499 13.5,170C 14.056,169.617 14.3893,169.117 14.5,168.5C 17.1357,167.176 19.8023,167.176 22.5,168.5C 24.3817,167.907 26.2151,167.24 28,166.5C 28.1672,151.822 28.6672,137.155 29.5,122.5C 45.1169,122.38 60.7836,122.214 76.5,122C 77.3192,112.911 77.8192,103.744 78,94.5C 78.3076,93.6919 78.8076,93.0253 79.5,92.5C 91.8015,91.8519 104.135,91.1852 116.5,90.5C 117.48,89.0186 118.647,87.6853 120,86.5C 120.071,72.4433 120.905,58.4433 122.5,44.5C 120.896,38.9051 121.563,33.5718 124.5,28.5C 121.899,23.206 121.899,17.8727 124.5,12.5C 125.167,11.8333 125.833,11.1667 126.5,10.5 Z"/></g>
<g><path style="opacity:0.949" fill="#858598" d="M 127.5,88.5 C 133.579,87.5915 138.912,89.0915 143.5,93C 136.645,94.0347 129.978,93.368 123.5,91C 124.858,90.0656 126.192,89.2323 127.5,88.5 Z"/></g>
<g><path style="opacity:0.278" fill="#484848" d="M 146.5,92.5 C 158.838,92.3335 171.171,92.5001 183.5,93C 184.044,93.7172 184.711,94.2172 185.5,94.5C 185.5,94.8333 185.5,95.1667 185.5,95.5C 185.5,104.5 185.5,113.5 185.5,122.5C 186.833,122.5 188.167,122.5 189.5,122.5C 204.362,122.384 219.029,122.384 233.5,122.5C 233.611,123.117 233.944,123.617 234.5,124C 217.837,124.5 201.17,124.667 184.5,124.5C 184.666,114.828 184.5,105.161 184,95.5C 183.5,95 183,94.5 182.5,94C 175.062,93.2639 167.562,93.4306 160,94.5C 155.242,94.6343 150.742,93.9676 146.5,92.5 Z"/></g>
<g><path style="opacity:0.985" fill="#bfbebc" d="M 151.5,98.5 C 156.167,98.5 160.833,98.5 165.5,98.5C 165.5,101.167 165.5,103.833 165.5,106.5C 160.833,106.5 156.167,106.5 151.5,106.5C 151.5,103.833 151.5,101.167 151.5,98.5 Z"/></g>
<g><path style="opacity:0.878" fill="#8c8b8b" d="M 151.5,98.5 C 156.975,97.5111 162.642,97.1778 168.5,97.5C 168.5,100.833 168.5,104.167 168.5,107.5C 162.642,107.822 156.975,107.489 151.5,106.5C 156.167,106.5 160.833,106.5 165.5,106.5C 165.5,103.833 165.5,101.167 165.5,98.5C 160.833,98.5 156.167,98.5 151.5,98.5 Z"/></g>
<g><path style="opacity:0.797" fill="#787878" d="M 180.5,106.5 C 177.713,107.477 174.713,107.81 171.5,107.5C 171.5,104.167 171.5,100.833 171.5,97.5C 180.498,95.1604 183.498,98.1604 180.5,106.5 Z"/></g>
<g><path style="opacity:0.917" fill="#b2b2b2" d="M 180.5,106.5 C 177.833,106.5 175.167,106.5 172.5,106.5C 172.5,103.833 172.5,101.167 172.5,98.5C 174.5,98.5 176.5,98.5 178.5,98.5C 178.132,101.533 178.798,104.2 180.5,106.5 Z"/></g>
<g><path style="opacity:0.434" fill="#444444" d="M 82.5,97.5 C 85.5,97.5 88.5,97.5 91.5,97.5C 91.5,100.833 91.5,104.167 91.5,107.5C 88.5,107.5 85.5,107.5 82.5,107.5C 82.5,104.167 82.5,100.833 82.5,97.5 Z"/></g>
<g><path style="opacity:0.013" fill="#040404" d="M 90.5,100.5 C 89.1667,101.5 89.1667,102.5 90.5,103.5C 88.7211,105.344 86.3878,106.01 83.5,105.5C 83.5,103.5 83.5,101.5 83.5,99.5C 86.0593,99.1984 88.3926,99.5318 90.5,100.5 Z"/></g>
<g><path style="opacity:0.02" fill="#070707" d="M 185.5,95.5 C 186.493,103.984 186.826,112.651 186.5,121.5C 187.791,121.263 188.791,121.596 189.5,122.5C 188.167,122.5 186.833,122.5 185.5,122.5C 185.5,113.5 185.5,104.5 185.5,95.5 Z"/></g>
<g><path style="opacity:0.988" fill="#bebdbe" d="M 112.5,96.5 C 124.5,96.5 136.5,96.5 148.5,96.5C 148.5,102.5 148.5,108.5 148.5,114.5C 136.5,114.5 124.5,114.5 112.5,114.5C 112.5,108.5 112.5,102.5 112.5,96.5 Z"/></g>
<g><path style="opacity:0.995" fill="#0d0d0d" d="M 142.5,100.5 C 143.833,100.5 145.167,100.5 146.5,100.5C 146.5,101.833 146.5,103.167 146.5,104.5C 142.56,105.234 141.227,103.901 142.5,100.5 Z"/></g>
<g><path style="opacity:0.994" fill="#0e0e0e" d="M 115.5,100.5 C 116.833,100.5 118.167,100.5 119.5,100.5C 119.5,101.833 119.5,103.167 119.5,104.5C 115.56,105.234 114.227,103.901 115.5,100.5 Z"/></g>
<g><path style="opacity:0.378" fill="#4a4a4a" d="M 94.5,97.5 C 99.5111,97.3341 104.511,97.5007 109.5,98C 110.451,101.057 110.784,104.223 110.5,107.5C 105.167,107.5 99.8333,107.5 94.5,107.5C 94.5,104.167 94.5,100.833 94.5,97.5 Z"/></g>
<g><path style="opacity:0.05" fill="#0a0a0a" d="M 95.5,99.5 C 99.8333,99.5 104.167,99.5 108.5,99.5C 108.5,101.5 108.5,103.5 108.5,105.5C 104.167,105.5 99.8333,105.5 95.5,105.5C 95.5,103.5 95.5,101.5 95.5,99.5 Z"/></g>
<g><path style="opacity:0.947" fill="#4f4f4f" d="M 82.5,109.5 C 85.7766,109.216 88.9433,109.549 92,110.5C 92.4998,120.828 92.6665,131.161 92.5,141.5C 89.1427,140.373 85.8094,140.373 82.5,141.5C 82.5,130.833 82.5,120.167 82.5,109.5 Z"/></g>
<g><path style="opacity:0.374" fill="#575757" d="M 94.5,109.5 C 96.5,109.5 98.5,109.5 100.5,109.5C 100.666,114.844 100.499,120.177 100,125.5C 97.7853,128.596 96.1186,131.929 95,135.5C 94.5002,126.84 94.3336,118.173 94.5,109.5 Z M 97.5,125.5 C 96.8333,122.833 96.1667,120.167 95.5,117.5C 95.5,115.5 95.5,113.5 95.5,111.5C 96.8333,111.5 98.1667,111.5 99.5,111.5C 99.966,116.43 99.2994,121.097 97.5,125.5 Z"/></g>
<g><path style="opacity:0.787" fill="#373737" d="M 102.5,109.5 C 104.167,109.5 105.833,109.5 107.5,109.5C 108.07,114.175 107.07,118.342 104.5,122C 104.905,122.945 105.572,123.612 106.5,124C 105.216,124.684 104.049,124.517 103,123.5C 102.501,118.845 102.334,114.179 102.5,109.5 Z M 105.5,112.5 C 104.588,113.738 104.421,115.072 105,116.5C 106.63,115.182 106.797,113.849 105.5,112.5 Z"/></g>
<g><path style="opacity:0.49" fill="#5d5d5d" d="M 156.5,109.5 C 157.833,109.5 159.167,109.5 160.5,109.5C 160.5,114.5 160.5,119.5 160.5,124.5C 156.901,124.738 156.567,123.738 159.5,121.5C 156.869,118.041 155.869,114.041 156.5,109.5 Z"/></g>
<g><path style="opacity:0.057" fill="#0d0d0d" d="M 157.5,111.5 C 158.725,112.152 159.392,113.319 159.5,115C 159.167,116.167 158.833,117.333 158.5,118.5C 157.526,116.257 157.192,113.924 157.5,111.5 Z"/></g>
<g><path style="opacity:0.85" fill="#6d6d6d" d="M 165.5,126.5 C 164.21,125.942 163.377,124.942 163,123.5C 162.501,118.845 162.334,114.179 162.5,109.5C 164.833,109.5 167.167,109.5 169.5,109.5C 169.666,118.173 169.5,126.84 169,135.5C 167.82,132.479 166.654,129.479 165.5,126.5 Z"/></g>
<g><path style="opacity:0.039" fill="#141414" d="M 165.5,126.5 C 164.608,121.562 164.274,116.562 164.5,111.5C 165.5,111.5 166.5,111.5 167.5,111.5C 167.666,116.844 167.499,122.177 167,127.5C 166.617,126.944 166.117,126.611 165.5,126.5 Z"/></g>
<g><path style="opacity:0.009" fill="#070707" d="M 95.5,117.5 C 96.1667,120.167 96.8333,122.833 97.5,125.5C 97.2914,126.922 96.7914,128.255 96,129.5C 95.5012,125.514 95.3345,121.514 95.5,117.5 Z"/></g>
<g><path style="opacity:0.996" fill="#39875c" d="M 116.5,118.5 C 126.833,118.5 137.167,118.5 147.5,118.5C 147.5,119.5 147.5,120.5 147.5,121.5C 144.743,121.378 142.743,122.545 141.5,125C 135.167,125.667 128.833,125.667 122.5,125C 121.084,122.735 119.084,121.569 116.5,121.5C 116.5,120.5 116.5,119.5 116.5,118.5 Z"/></g>
<g><path style="opacity:0.044" fill="#090909" d="M 83.5,111.5 C 85.8333,111.5 88.1667,111.5 90.5,111.5C 90.5,120.833 90.5,130.167 90.5,139.5C 88.1667,139.5 85.8333,139.5 83.5,139.5C 83.5,130.167 83.5,120.833 83.5,111.5 Z"/></g>
<g><path style="opacity:0.613" fill="#535353" d="M 171.5,109.5 C 174.777,109.216 177.943,109.549 181,110.5C 181.5,120.828 181.666,131.161 181.5,141.5C 178.143,140.373 174.809,140.373 171.5,141.5C 171.5,130.833 171.5,120.167 171.5,109.5 Z"/></g>
<g><path style="opacity:0.022" fill="#070707" d="M 173.5,111.5 C 175.5,111.5 177.5,111.5 179.5,111.5C 179.5,120.833 179.5,130.167 179.5,139.5C 177.5,139.5 175.5,139.5 173.5,139.5C 173.5,130.167 173.5,120.833 173.5,111.5 Z"/></g>
<g><path style="opacity:0.275" fill="#454445" d="M 183.5,127.5 C 187.182,127.335 190.848,127.501 194.5,128C 190.096,129.777 186.596,132.61 184,136.5C 183.502,133.518 183.335,130.518 183.5,127.5 Z"/></g>
<g><path style="opacity:0.832" fill="#555656" d="M 69.5,128.5 C 72.9619,127.518 76.6286,127.185 80.5,127.5C 80.665,130.85 80.4983,134.183 80,137.5C 77.5407,133.202 74.0407,130.202 69.5,128.5 Z"/></g>
<g><path style="opacity:0.308" fill="#585756" d="M 101.5,127.5 C 106.5,126.5 108.5,128.5 107.5,133.5C 103.187,131.902 100.02,133.236 98,137.5C 97.8653,133.739 99.032,130.405 101.5,127.5 Z"/></g>
<g><path style="opacity:0.996" fill="#44976a" d="M 125.5,129.5 C 129.646,128.353 133.98,128.186 138.5,129C 134.314,133.47 129.98,133.636 125.5,129.5 Z"/></g>
<g><path style="opacity:0.573" fill="#7a7675" d="M 156.5,127.5 C 158.527,127.338 160.527,127.505 162.5,128C 160.866,128.494 159.199,128.66 157.5,128.5C 157.5,129.5 157.5,130.5 157.5,131.5C 159.262,131.357 160.929,131.691 162.5,132.5C 163.192,131.975 163.692,131.308 164,130.5C 166.231,133.857 167.231,137.524 167,141.5C 166.47,135.355 163.304,132.688 157.5,133.5C 156.534,131.604 156.201,129.604 156.5,127.5 Z"/></g>
<g><path style="opacity:0.996" fill="#378157" d="M 120.5,133.5 C 121.708,134.234 123.041,134.567 124.5,134.5C 125.268,139.221 124.101,143.221 121,146.5C 120.501,142.179 120.334,137.846 120.5,133.5 Z"/></g>
<g><path style="opacity:0.678" fill="#414141" d="M 226.5,133.5 C 227.79,134.058 228.623,135.058 229,136.5C 229.497,134.19 229.663,131.857 229.5,129.5C 230.647,133.432 230.814,138.766 230,145.5C 229.373,141.448 227.873,137.782 225.5,134.5C 225.624,133.893 225.957,133.56 226.5,133.5 Z"/></g>
<g><path style="opacity:0.996" fill="#383839" d="M 53.5,127.5 C 54.8333,127.5 56.1667,127.5 57.5,127.5C 57.5777,130.487 56.411,131.153 54,129.5C 43.957,133.917 39.957,141.583 42,152.5C 43.505,157.355 46.3383,161.188 50.5,164C 43.1921,163.197 38.8588,159.03 37.5,151.5C 37.722,149.945 38.3887,148.611 39.5,147.5C 37.0081,141.786 38.3414,136.952 43.5,133C 47.0242,131.407 50.3576,129.573 53.5,127.5 Z"/></g>
<g><path style="opacity:0.995" fill="#2c7049" d="M 141.5,129.5 C 141.56,128.957 141.893,128.624 142.5,128.5C 143.664,134.472 143.83,140.472 143,146.5C 141.89,144.963 140.39,144.297 138.5,144.5C 138.5,141.167 138.5,137.833 138.5,134.5C 142.273,134.343 143.273,132.676 141.5,129.5 Z"/></g>
<g><path style="opacity:0.996" fill="#38895d" d="M 147.5,128.5 C 149.888,129.219 151.388,130.885 152,133.5C 152.667,137.5 152.667,141.5 152,145.5C 151.527,147.779 150.527,149.779 149,151.5C 148.333,150.833 147.667,150.167 147,149.5C 146.205,142.42 146.372,135.42 147.5,128.5 Z"/></g>
<g><path style="opacity:0.996" fill="#363536" d="M 205.5,127.5 C 223.699,130.248 229.866,140.248 224,157.5C 220.665,160.793 216.832,163.46 212.5,165.5C 211.304,165.154 211.304,164.654 212.5,164C 220.061,159.371 223.227,152.538 222,143.5C 220.896,136.393 216.896,131.727 210,129.5C 207.713,131.815 206.213,131.148 205.5,127.5 Z"/></g>
<g><path style="opacity:0.996" fill="#3a895c" d="M 114.5,128.5 C 115.75,128.577 116.583,129.244 117,130.5C 117.667,136.833 117.667,143.167 117,149.5C 116.333,150.167 115.667,150.833 115,151.5C 112.103,148.046 110.936,144.046 111.5,139.5C 111.667,137.167 111.833,134.833 112,132.5C 113.085,131.264 113.918,129.931 114.5,128.5 Z"/></g>
<g><path style="opacity:0.702" fill="#374041" d="M 168.5,144.5 C 171.361,144.342 174.028,145.008 176.5,146.5C 178.937,143.563 180.603,143.896 181.5,147.5C 181.547,149 180.881,150 179.5,150.5C 177.759,146.79 175.759,146.624 173.5,150C 171.866,150.494 170.199,150.66 168.5,150.5C 168.5,148.5 168.5,146.5 168.5,144.5 Z"/></g>
<g><path style="opacity:0.996" fill="#3a3b3b" d="M 51.5,133.5 C 52.5593,135.07 52.0593,136.403 50,137.5C 48.9322,140.604 48.0989,143.771 47.5,147C 48.2265,150.976 49.0599,154.809 50,158.5C 46.0809,155.779 44.2476,151.945 44.5,147C 44.8905,141.382 47.2238,136.882 51.5,133.5 Z"/></g>
<g><path style="opacity:0.996" fill="#3e3c3c" d="M 58.5,139.5 C 63.3514,138.784 67.5181,140.117 71,143.5C 71.1274,144.777 70.6274,145.943 69.5,147C 69.7591,148.261 70.4258,149.261 71.5,150C 65.4457,155.724 59.279,155.891 53,150.5C 52.1859,148.098 52.3526,145.765 53.5,143.5C 54.9814,141.851 56.6481,140.518 58.5,139.5 Z"/></g>
<g><path style="opacity:0.996" fill="#3b3b3c" d="M 198.5,139.5 C 207.084,138.598 211.25,142.264 211,150.5C 209.5,151.333 208.333,152.5 207.5,154C 202.771,154.996 198.271,154.496 194,152.5C 193.626,151.584 193.126,150.75 192.5,150C 195.044,148.225 195.044,146.392 192.5,144.5C 193.96,142.028 195.96,140.361 198.5,139.5 Z"/></g>
<g><path style="opacity:0.42" fill="#737373" d="M 101.5,143.5 C 103.048,143.821 103.715,144.821 103.5,146.5C 104.675,146.281 105.675,146.614 106.5,147.5C 104.61,148.424 103.11,149.757 102,151.5C 101.517,150.552 101.351,149.552 101.5,148.5C 100.325,148.719 99.325,148.386 98.5,147.5C 100.288,146.717 101.288,145.384 101.5,143.5 Z"/></g>
<g><path style="opacity:0.996" fill="#30754c" d="M 137.5,150.5 C 133.629,150.815 129.962,150.482 126.5,149.5C 127.593,147.444 129.426,146.444 132,146.5C 135.186,146.237 137.019,147.57 137.5,150.5 Z"/></g>
<g><path style="opacity:0.925" fill="#cfd0cc" d="M 160.5,143.5 C 162.149,144.714 163.815,146.047 165.5,147.5C 163.833,148.5 162.5,149.833 161.5,151.5C 160.614,150.675 160.281,149.675 160.5,148.5C 156.5,147.833 156.5,147.167 160.5,146.5C 160.5,145.5 160.5,144.5 160.5,143.5 Z"/></g>
<g><path style="opacity:0.996" fill="#133622" d="M 126.5,149.5 C 129.962,150.482 133.629,150.815 137.5,150.5C 139.722,150.822 141.556,150.155 143,148.5C 143.617,149.449 143.451,150.282 142.5,151C 135.144,151.831 127.811,151.665 120.5,150.5C 122.337,150.696 124.337,150.362 126.5,149.5 Z"/></g>
<g><path style="opacity:0.708" fill="#525252" d="M 36.5,158.5 C 35.8826,158.389 35.3826,158.056 35,157.5C 33.5951,161.072 33.2617,164.739 34,168.5C 35.0113,169.337 36.1779,169.67 37.5,169.5C 43.5,170.833 49.5,170.833 55.5,169.5C 56.1667,169.5 56.8333,169.5 57.5,169.5C 60.8333,170.833 64.1667,170.833 67.5,169.5C 68.0431,169.56 68.3764,169.893 68.5,170.5C 56.5185,171.499 44.5185,171.832 32.5,171.5C 32.5,156.833 32.5,142.167 32.5,127.5C 36.5138,127.334 40.5138,127.501 44.5,128C 43.646,129.022 42.646,129.855 41.5,130.5C 40.3044,130.154 40.3044,129.654 41.5,129C 38.854,128.503 36.1873,128.336 33.5,128.5C 34.3925,137.713 35.3925,147.713 36.5,158.5 Z"/></g>
<g><path style="opacity:0.996" fill="#3a895c" d="M 121.5,154.5 C 128.175,154.334 134.842,154.5 141.5,155C 142.167,155.667 142.833,156.333 143.5,157C 136.051,161.398 128.551,161.564 121,157.5C 120.53,156.423 120.697,155.423 121.5,154.5 Z"/></g>
<g><path style="opacity:0.867" fill="#6a4c98" d="M 108.5,148.5 C 111.976,154.141 116.643,158.641 122.5,162C 118.2,161.745 113.867,161.245 109.5,160.5C 103.956,162.714 99.1224,161.714 95,157.5C 94.51,156.207 94.3433,154.873 94.5,153.5C 97.8411,154.005 101.174,154.172 104.5,154C 107.215,153.125 108.548,151.292 108.5,148.5 Z"/></g>
<g><path style="opacity:0.996" fill="#343635" d="M 210.5,132.5 C 219.538,139.187 221.372,147.521 216,157.5C 214.887,159.329 213.387,160.163 211.5,160C 215.373,154.109 216.54,147.609 215,140.5C 213.644,137.671 212.144,135.004 210.5,132.5 Z"/></g>
<g><path style="opacity:0.204" fill="#505050" d="M 213.5,171.5 C 217.5,170.833 221.5,170.167 225.5,169.5C 226.833,169.5 228.167,169.5 229.5,169.5C 229.666,165.154 229.499,160.821 229,156.5C 228.333,157.833 227.667,159.167 227,160.5C 226.346,161.696 225.846,161.696 225.5,160.5C 227.691,156.76 229.191,152.76 230,148.5C 230.5,156.159 230.666,163.826 230.5,171.5C 224.833,171.5 219.167,171.5 213.5,171.5 Z"/></g>
<g><path style="opacity:0.984" fill="#7554a8" d="M 153.5,149.5 C 155.298,151.112 157.298,152.612 159.5,154C 162.475,154.044 165.475,153.877 168.5,153.5C 168.398,157.775 166.231,160.442 162,161.5C 159.589,160.861 157.089,160.527 154.5,160.5C 150.133,161.245 145.8,161.745 141.5,162C 147.073,159.262 151.073,155.095 153.5,149.5 Z"/></g>
<g><path style="opacity:0.992" fill="#7b6916" d="M 183.5,157.5 C 185.085,158.002 185.585,159.002 185,160.5C 183.961,159.756 183.461,158.756 183.5,157.5 Z"/></g>
<g><path style="opacity:0.894" fill="#5592c3" d="M 205.5,158.5 C 207.973,158.947 208.14,159.947 206,161.5C 205.517,160.552 205.351,159.552 205.5,158.5 Z"/></g>
<g><path style="opacity:0.009" fill="#121212" d="M 36.5,158.5 C 37.6127,162.299 39.946,165.299 43.5,167.5C 44.2891,167.783 44.9558,168.283 45.5,169C 42.854,169.497 40.1873,169.664 37.5,169.5C 36.1779,169.67 35.0113,169.337 34,168.5C 33.2617,164.739 33.5951,161.072 35,157.5C 35.3826,158.056 35.8826,158.389 36.5,158.5 Z M 35.5,163.5 C 34.6938,165.164 35.0271,166.831 36.5,168.5C 37.6336,166.561 37.3003,164.895 35.5,163.5 Z"/></g>
<g><path style="opacity:0.492" fill="#2d2d2d" d="M 83.5,152.5 C 86.1357,153.824 88.8023,153.824 91.5,152.5C 92.7914,156.045 92.7914,159.545 91.5,163C 88.5184,163.498 85.5184,163.665 82.5,163.5C 82.244,159.731 82.5773,156.064 83.5,152.5 Z M 84.5,155.5 C 84.5,157.167 84.5,158.833 84.5,160.5C 92.208,158.757 92.208,157.091 84.5,155.5 Z"/></g>
<g><path style="opacity:0.502" fill="#504f4e" d="M 171.5,152.5 C 174.764,153.324 178.098,153.658 181.5,153.5C 181.5,156.833 181.5,160.167 181.5,163.5C 178.167,163.5 174.833,163.5 171.5,163.5C 171.5,159.833 171.5,156.167 171.5,152.5 Z"/></g>
<g><path style="opacity:0.018" fill="#0c0d0c" d="M 172.5,154.5 C 174.764,155.219 177.097,155.552 179.5,155.5C 179.5,157.833 179.5,160.167 179.5,162.5C 177.167,162.5 174.833,162.5 172.5,162.5C 172.5,159.833 172.5,157.167 172.5,154.5 Z"/></g>
<g><path style="opacity:0.409" fill="#595959" d="M 235.5,125.5 C 235.5,139.833 235.5,154.167 235.5,168.5C 240.628,168.112 245.628,168.612 250.5,170C 244.843,170.499 239.176,170.666 233.5,170.5C 233.333,155.83 233.5,141.163 234,126.5C 234.383,125.944 234.883,125.611 235.5,125.5 Z"/></g>
<g><path style="opacity:0.329" fill="#5a5a5a" d="M 36.5,158.5 C 38.8044,161.141 41.1377,163.808 43.5,166.5C 43.5,166.833 43.5,167.167 43.5,167.5C 39.946,165.299 37.6127,162.299 36.5,158.5 Z"/></g>
<g><path style="opacity:0.496" fill="#686868" d="M 116.5,164.5 C 114.607,170.545 113.94,176.879 114.5,183.5C 112.838,184.985 111.005,186.318 109,187.5C 107.56,186.852 106.06,186.519 104.5,186.5C 104.192,184.076 104.526,181.743 105.5,179.5C 108.167,177.5 108.167,175.5 105.5,173.5C 104.511,169.893 104.177,166.226 104.5,162.5C 108.742,162.151 112.742,162.817 116.5,164.5 Z"/></g>
<g><path style="opacity:0.996" fill="#930c14" d="M 183.5,163.5 C 185.814,165.477 188.147,167.477 190.5,169.5C 191.916,167.861 193.583,167.027 195.5,167C 192.437,170.897 188.437,172.397 183.5,171.5C 183.5,168.833 183.5,166.167 183.5,163.5 Z"/></g>
<g><path style="opacity:0.626" fill="#b0b0b0" d="M 43.5,167.5 C 43.5,167.167 43.5,166.833 43.5,166.5C 47.1888,168.674 51.1888,169.674 55.5,169.5C 49.5,170.833 43.5,170.833 37.5,169.5C 40.1873,169.664 42.854,169.497 45.5,169C 44.9558,168.283 44.2891,167.783 43.5,167.5 Z"/></g>
<g><path style="opacity:0.98" fill="#e1dfdd" d="M 67.5,169.5 C 64.1667,170.833 60.8333,170.833 57.5,169.5C 60.1813,169.538 62.6813,168.871 65,167.5C 66.0111,168.056 66.8444,168.722 67.5,169.5 Z"/></g>
<g><path style="opacity:0.996" fill="#940c0e" d="M 79.5,162.5 C 82.5694,169.809 80.2361,172.642 72.5,171C 71.1667,169.667 69.8333,168.333 68.5,167C 70.3867,166.837 71.8867,167.671 73,169.5C 75.3722,167.297 77.5389,164.963 79.5,162.5 Z"/></g>
<g><path style="opacity:0.723" fill="#8f8f90" d="M 114.5,183.5 C 113.94,176.879 114.607,170.545 116.5,164.5C 130.892,164.759 145.225,164.092 159.5,162.5C 159.5,166.167 159.5,169.833 159.5,173.5C 158.5,173.5 157.5,173.5 156.5,173.5C 156.57,177.189 157.57,180.523 159.5,183.5C 159.333,184.833 159.167,186.167 159,187.5C 157.542,186.253 156.042,186.253 154.5,187.5C 152.424,185.712 150.257,184.046 148,182.5C 147.93,179.225 147.763,176.058 147.5,173C 137.167,172.333 126.833,172.333 116.5,173C 115.865,176.603 115.198,180.103 114.5,183.5 Z"/></g>
<g><path style="opacity:0.98" fill="#bbbbbb" d="M 144.5,167.5 C 141.099,166.227 139.766,167.56 140.5,171.5C 134.642,171.822 128.975,171.489 123.5,170.5C 123.5,169.5 123.5,168.5 123.5,167.5C 122.167,167.5 120.833,167.5 119.5,167.5C 118.957,167.44 118.624,167.107 118.5,166.5C 127.5,165.167 136.5,165.167 145.5,166.5C 145.376,167.107 145.043,167.44 144.5,167.5 Z"/></g>
<g><path style="opacity:0.991" fill="#101010" d="M 144.5,167.5 C 144.5,168.833 144.5,170.167 144.5,171.5C 143.167,171.5 141.833,171.5 140.5,171.5C 139.766,167.56 141.099,166.227 144.5,167.5 Z"/></g>
<g><path style="opacity:0.994" fill="#080808" d="M 119.5,167.5 C 120.833,167.5 122.167,167.5 123.5,167.5C 123.5,168.5 123.5,169.5 123.5,170.5C 119.708,172.268 118.374,171.268 119.5,167.5 Z"/></g>
<g><path style="opacity:0.975" fill="#8a8c8c" d="M 225.5,169.5 C 221.5,170.167 217.5,170.833 213.5,171.5C 207.158,171.666 200.825,171.5 194.5,171C 195.725,169.437 197.225,168.27 199,167.5C 205.09,170.096 211.257,170.096 217.5,167.5C 218.696,167.846 218.696,168.346 217.5,169C 220.146,169.497 222.813,169.664 225.5,169.5 Z"/></g>
<g><path style="opacity:0.993" fill="#bcbcbd" d="M 70.5,173.5 C 70.5,176.5 70.5,179.5 70.5,182.5C 58.5,182.5 46.5,182.5 34.5,182.5C 32.8333,182.5 31.1667,182.5 29.5,182.5C 29.5,179.5 29.5,176.5 29.5,173.5C 43.1667,173.5 56.8333,173.5 70.5,173.5 Z"/></g>
<g><path style="opacity:0.99" fill="#bcbcbc" d="M 192.5,173.5 C 206.5,173.5 220.5,173.5 234.5,173.5C 234.5,176.5 234.5,179.5 234.5,182.5C 220.5,182.5 206.5,182.5 192.5,182.5C 192.5,179.5 192.5,176.5 192.5,173.5 Z"/></g>
<g><path style="opacity:0.948" fill="#5e6986" d="M 162.5,166.5 C 166.099,166.262 166.433,167.262 163.5,169.5C 165.459,172.236 167.125,172.069 168.5,169C 168.095,168.055 167.428,167.388 166.5,167C 170.821,166.501 175.154,166.334 179.5,166.5C 179.336,169.187 179.503,171.854 180,174.5C 181.734,175.249 183.567,175.749 185.5,176C 184.167,177.333 184.167,178.667 185.5,180C 187.085,180.085 188.418,180.251 189.5,180.5C 184.208,181.495 178.875,181.828 173.5,181.5C 173.777,178.552 173.444,175.719 172.5,173C 169.183,172.502 165.85,172.335 162.5,172.5C 162.5,170.5 162.5,168.5 162.5,166.5 Z"/></g>
<g><path style="opacity:0.992" fill="#030405" d="M 174.5,171.5 C 178.161,171.35 179.161,172.85 177.5,176C 176.551,176.617 175.718,176.451 175,175.5C 174.51,174.207 174.343,172.873 174.5,171.5 Z"/></g>
<g><path style="opacity:0.323" fill="#222633" d="M 169.5,167.5 C 172.5,167.5 175.5,167.5 178.5,167.5C 178.5,168.5 178.5,169.5 178.5,170.5C 175.5,170.5 172.5,170.5 169.5,170.5C 169.5,169.5 169.5,168.5 169.5,167.5 Z"/></g>
<g><path style="opacity:0.718" fill="#4f5a72" d="M 84.5,166.5 C 88.5138,166.334 92.5138,166.501 96.5,167C 95.6198,168.356 95.2865,169.856 95.5,171.5C 97.4458,171.193 99.1125,171.193 100.5,171.5C 97.5535,172.321 94.5535,172.821 91.5,173C 90.5562,175.719 90.2229,178.552 90.5,181.5C 84.8333,181.5 79.1667,181.5 73.5,181.5C 73.2011,179.396 73.5344,177.396 74.5,175.5C 74.7486,176.582 74.9152,177.915 75,179.5C 77.1667,181 78.6667,180.5 79.5,178C 79.0946,177.055 78.428,176.388 77.5,176C 79.8907,175.713 82.2241,175.213 84.5,174.5C 88.3594,177.407 89.6928,176.574 88.5,172C 86.892,171.342 85.7253,171.842 85,173.5C 84.5034,171.19 84.3367,168.857 84.5,166.5 Z"/></g>
<g><path style="opacity:0.486" fill="#666666" d="M 17.5,173.5 C 20.5,173.5 23.5,173.5 26.5,173.5C 26.5,176.5 26.5,179.5 26.5,182.5C 23.5,182.5 20.5,182.5 17.5,182.5C 17.5,179.5 17.5,176.5 17.5,173.5 Z"/></g>
<g><path style="opacity:0.959" fill="#bababa" d="M 163.5,177.5 C 165.167,177.5 166.833,177.5 168.5,177.5C 168.5,179.167 168.5,180.833 168.5,182.5C 166.833,182.5 165.167,182.5 163.5,182.5C 163.5,180.833 163.5,179.167 163.5,177.5 Z"/></g>
<g><path style="opacity:0.973" fill="#646869" d="M 163.5,177.5 C 165.265,176.539 167.265,176.205 169.5,176.5C 169.5,178.833 169.5,181.167 169.5,183.5C 167.265,183.795 165.265,183.461 163.5,182.5C 165.167,182.5 166.833,182.5 168.5,182.5C 168.5,180.833 168.5,179.167 168.5,177.5C 166.833,177.5 165.167,177.5 163.5,177.5 Z"/></g>
<g><path style="opacity:0.894" fill="#9e9e9e" d="M 237.5,173.5 C 240.5,173.5 243.5,173.5 246.5,173.5C 246.5,176.5 246.5,179.5 246.5,182.5C 243.5,182.5 240.5,182.5 237.5,182.5C 237.5,179.5 237.5,176.5 237.5,173.5 Z"/></g>
<g><path style="opacity:0.992" fill="#49494b" d="M 70.5,173.5 C 71.4794,176.625 71.8128,179.958 71.5,183.5C 58.9887,183.829 46.6554,183.495 34.5,182.5C 46.5,182.5 58.5,182.5 70.5,182.5C 70.5,179.5 70.5,176.5 70.5,173.5 Z"/></g>
<g><path style="opacity:0.996" fill="#b8b8b7" d="M 29.5,187.5 C 46.5,187.5 63.5,187.5 80.5,187.5C 80.5,190.5 80.5,193.5 80.5,196.5C 75.8215,196.666 71.1548,196.499 66.5,196C 64.9458,194.108 63.1124,192.608 61,191.5C 58.8876,192.608 57.0542,194.108 55.5,196C 46.8397,196.5 38.1731,196.666 29.5,196.5C 29.5,193.5 29.5,190.5 29.5,187.5 Z"/></g>
<g><path style="opacity:0.788" fill="#969697" d="M 233.5,188.5 C 229.865,189.114 226.198,189.448 222.5,189.5C 216.459,189.747 210.459,189.414 204.5,188.5C 199.377,189.549 199.377,190.549 204.5,191.5C 201.561,191.918 199.228,193.418 197.5,196C 192.845,196.499 188.179,196.666 183.5,196.5C 183.5,193.5 183.5,190.5 183.5,187.5C 200.342,187.17 217.008,187.503 233.5,188.5 Z"/></g>
<g><path style="opacity:0.644" fill="#7a7b7a" d="M 222.5,189.5 C 221.527,191.068 221.36,192.735 222,194.5C 224.277,195.117 226.444,195.784 228.5,196.5C 221.825,196.666 215.158,196.5 208.5,196C 206.959,194.629 205.625,193.129 204.5,191.5C 199.377,190.549 199.377,189.549 204.5,188.5C 210.459,189.414 216.459,189.747 222.5,189.5 Z"/></g>
<g><path style="opacity:0.738" fill="#616262" d="M 163.5,186.5 C 165.5,186.5 167.5,186.5 169.5,186.5C 169.5,189.833 169.5,193.167 169.5,196.5C 166.708,196.548 164.875,195.215 164,192.5C 163.505,190.527 163.338,188.527 163.5,186.5 Z"/></g>
<g><path style="opacity:0.451" fill="#3d3e3e" d="M 94.5,186.5 C 96.5,186.5 98.5,186.5 100.5,186.5C 100.741,189.794 99.9076,192.794 98,195.5C 96.9887,196.337 95.8221,196.67 94.5,196.5C 94.5,193.167 94.5,189.833 94.5,186.5 Z"/></g>
<g><path style="opacity:0.541" fill="#575757" d="M 233.5,188.5 C 233.5,191.167 233.5,193.833 233.5,196.5C 231.833,196.5 230.167,196.5 228.5,196.5C 226.444,195.784 224.277,195.117 222,194.5C 221.36,192.735 221.527,191.068 222.5,189.5C 226.198,189.448 229.865,189.114 233.5,188.5 Z"/></g>
<g><path style="opacity:0.996" fill="#3c3c3c" d="M 60.5,194.5 C 70.8572,203.488 68.8572,206.821 54.5,204.5C 54.4914,202.692 54.9914,201.025 56,199.5C 57.7073,197.963 59.2073,196.296 60.5,194.5 Z"/></g>
<g><path style="opacity:0.876" fill="#c2c5c5" d="M 77.5,199.5 C 78.5,199.5 79.5,199.5 80.5,199.5C 80.5,201.167 80.5,202.833 80.5,204.5C 79.1667,204.5 77.8333,204.5 76.5,204.5C 76.366,202.708 76.6993,201.042 77.5,199.5 Z"/></g>
<g><path style="opacity:0.588" fill="#7c797b" d="M 183.5,198.5 C 184.833,198.5 186.167,198.5 187.5,198.5C 187.5,200.5 187.5,202.5 187.5,204.5C 186.167,204.5 184.833,204.5 183.5,204.5C 183.5,202.5 183.5,200.5 183.5,198.5 Z"/></g>
<g><path style="opacity:0.653" fill="#7a7a7a" d="M 82.5,183.5 C 85.4475,183.223 88.2809,183.556 91,184.5C 91.4998,193.16 91.6664,201.827 91.5,210.5C 88.5525,210.777 85.7191,210.444 83,209.5C 82.5002,200.84 82.3336,192.173 82.5,183.5 Z"/></g>
<g><path style="opacity:0.996" fill="#dfe3e2" d="M 151.5,188.5 C 153.479,189.812 155.145,191.479 156.5,193.5C 158.576,194.1 160.576,194.433 162.5,194.5C 166.399,199.8 167.732,205.467 166.5,211.5C 164.091,208.563 161.591,205.563 159,202.5C 157.864,205.096 157.031,207.763 156.5,210.5C 155.022,210.238 153.689,210.571 152.5,211.5C 150.452,216.386 147.119,220.219 142.5,223C 132.802,226.29 123.135,226.29 113.5,223C 111.129,220.148 108.129,218.314 104.5,217.5C 103.668,213.845 102.835,210.179 102,206.5C 101.519,208.478 100.353,209.811 98.5,210.5C 97.2867,210.253 96.62,209.586 96.5,208.5C 97.0426,203.04 98.8759,198.04 102,193.5C 103.388,194.554 104.888,194.72 106.5,194C 108.037,192.293 109.704,190.793 111.5,189.5C 112.479,192.427 111.312,194.427 108,195.5C 107.362,196.609 106.862,197.775 106.5,199C 108.351,201.552 110.017,204.219 111.5,207C 116.704,209.216 121.871,211.383 127,213.5C 127.945,213.095 128.612,212.428 129,211.5C 131.456,213.321 134.289,213.988 137.5,213.5C 137.5,212.5 137.5,211.5 137.5,210.5C 138.833,210.5 140.167,210.5 141.5,210.5C 141.5,209.5 141.5,208.5 141.5,207.5C 144.365,207.945 146.865,207.278 149,205.5C 149.981,203.04 150.815,200.54 151.5,198C 149.84,196.158 148.84,193.991 148.5,191.5C 150.592,191.561 152.092,192.561 153,194.5C 153.5,194 154,193.5 154.5,193C 152.624,192.082 151.624,190.582 151.5,188.5 Z"/></g>
<g><path style="opacity:0.996" fill="#ecf0ef" d="M 151.5,188.5 C 151.624,190.582 152.624,192.082 154.5,193C 154,193.5 153.5,194 153,194.5C 152.092,192.561 150.592,191.561 148.5,191.5C 148.84,193.991 149.84,196.158 151.5,198C 150.815,200.54 149.981,203.04 149,205.5C 146.865,207.278 144.365,207.945 141.5,207.5C 141.5,208.5 141.5,209.5 141.5,210.5C 140.167,210.5 138.833,210.5 137.5,210.5C 137.5,211.5 137.5,212.5 137.5,213.5C 134.289,213.988 131.456,213.321 129,211.5C 128.612,212.428 127.945,213.095 127,213.5C 121.871,211.383 116.704,209.216 111.5,207C 110.017,204.219 108.351,201.552 106.5,199C 106.862,197.775 107.362,196.609 108,195.5C 111.312,194.427 112.479,192.427 111.5,189.5C 113.508,187.732 115.674,186.066 118,184.5C 118.494,182.866 118.66,181.199 118.5,179.5C 121.876,179.048 125.209,178.382 128.5,177.5C 131.037,179.63 133.871,179.964 137,178.5C 139.547,178.762 142.047,179.262 144.5,180C 145.103,181.825 145.77,183.659 146.5,185.5C 148.36,186.26 150.027,187.26 151.5,188.5 Z"/></g>
<g><path style="opacity:0.988" fill="#403d3d" d="M 202.5,194.5 C 212.81,203.805 210.81,206.805 196.5,203.5C 197.766,199.955 199.766,196.955 202.5,194.5 Z"/></g>
<g><path style="opacity:0.449" fill="#5b5b5b" d="M 26.5,189.5 C 26.1667,189.5 25.8333,189.5 25.5,189.5C 25.9235,197.667 25.0902,205.667 23,213.5C 22.3333,212.167 21.6667,212.167 21,213.5C 20.6667,214.833 20.3333,216.167 20,217.5C 18.9589,213.094 18.1256,208.761 17.5,204.5C 17.5,198.167 17.5,191.833 17.5,185.5C 20.5,185.5 23.5,185.5 26.5,185.5C 26.5,186.833 26.5,188.167 26.5,189.5 Z"/></g>
<g><path style="opacity:0.277" fill="#2f2f2f" d="M 25.5,189.5 C 24.0133,192.546 23.0133,195.879 22.5,199.5C 21.6667,200.5 20.8333,201.5 20,202.5C 18.7288,197.246 18.2288,191.913 18.5,186.5C 20.8333,186.5 23.1667,186.5 25.5,186.5C 25.5,187.5 25.5,188.5 25.5,189.5 Z"/></g>
<g><path style="opacity:0.986" fill="#b81519" d="M 41.5,202.5 C 44.8499,202.335 48.1832,202.502 51.5,203C 49.884,204.077 48.0507,204.577 46,204.5C 44.0145,204.431 42.5145,203.765 41.5,202.5 Z"/></g>
<g><path style="opacity:0.676" fill="#807f80" d="M 173.5,183.5 C 176.119,183.232 178.619,183.565 181,184.5C 181.816,193.079 181.649,201.579 180.5,210C 177.571,210.777 174.737,210.61 172,209.5C 170.911,200.572 171.411,191.905 173.5,183.5 Z"/></g>
<g><path style="opacity:0.627" fill="#666874" d="M 250.5,204.5 C 251.874,206.517 251.707,208.517 250,210.5C 249.322,208.402 249.489,206.402 250.5,204.5 Z"/></g>
<g><path style="opacity:0.996" fill="#3e3e3d" d="M 43.5,207.5 C 55.1667,207.5 66.8333,207.5 78.5,207.5C 78.5,209.5 78.5,211.5 78.5,213.5C 67.2963,215.441 55.963,216.274 44.5,216C 43.376,215.751 42.376,215.251 41.5,214.5C 42.7366,213.719 43.7366,212.719 44.5,211.5C 43.7542,210.264 43.4208,208.93 43.5,207.5 Z"/></g>
<g><path style="opacity:0.996" fill="#3c3e3c" d="M 185.5,207.5 C 197.186,207.168 208.852,207.501 220.5,208.5C 221.025,209.192 221.692,209.692 222.5,210C 219.942,211.38 219.942,212.88 222.5,214.5C 220.556,215.851 218.389,216.518 216,216.5C 205.7,216.179 195.533,215.179 185.5,213.5C 185.5,211.5 185.5,209.5 185.5,207.5 Z"/></g>
<g><path style="opacity:0.996" fill="#c41211" d="M 29.5,202.5 C 32.1667,202.5 34.8333,202.5 37.5,202.5C 37.8275,207.544 37.4941,212.544 36.5,217.5C 33.618,219.367 32.2847,222.034 32.5,225.5C 31.5,225.5 30.5,225.5 29.5,225.5C 29.5,217.833 29.5,210.167 29.5,202.5 Z"/></g>
<g><path style="opacity:0.99" fill="#888889" d="M 237.5,227.5 C 237.5,232.167 237.5,236.833 237.5,241.5C 240.167,241.5 242.833,241.5 245.5,241.5C 245.667,225.83 245.5,210.163 245,194.5C 243.208,192.293 240.874,190.959 238,190.5C 237.503,193.146 237.336,195.813 237.5,198.5C 236.515,194.366 236.182,190.032 236.5,185.5C 239.833,185.5 243.167,185.5 246.5,185.5C 246.5,204.5 246.5,223.5 246.5,242.5C 243.167,242.5 239.833,242.5 236.5,242.5C 236.179,237.305 236.513,232.305 237.5,227.5 Z"/></g>
<g><path style="opacity:0.629" fill="#8d790d" d="M 226.5,206.5 C 228.148,208.456 228.815,210.789 228.5,213.5C 229.833,213.5 231.167,213.5 232.5,213.5C 232.5,216.167 232.5,218.833 232.5,221.5C 230.339,219.87 228.172,218.203 226,216.5C 225.192,212.973 225.359,209.64 226.5,206.5 Z"/></g>
<g><path style="opacity:0.745" fill="#b49d0d" d="M 226.5,206.5 C 229.167,206.5 231.833,206.5 234.5,206.5C 235.108,211.944 234.442,216.944 232.5,221.5C 232.5,218.833 232.5,216.167 232.5,213.5C 231.167,213.5 229.833,213.5 228.5,213.5C 228.815,210.789 228.148,208.456 226.5,206.5 Z"/></g>
<g><path style="opacity:0.996" fill="#4f4f4f" d="M 51.5,220.5 C 54.5,220.5 57.5,220.5 60.5,220.5C 60.5,222.5 60.5,224.5 60.5,226.5C 57.8589,227.263 55.1922,227.43 52.5,227C 50.3162,225.102 49.9829,222.936 51.5,220.5 Z"/></g>
<g><path style="opacity:0.639" fill="#858585" d="M 83.5,212.5 C 86.1667,212.5 88.8333,212.5 91.5,212.5C 91.5,220.5 91.5,228.5 91.5,236.5C 88.8333,236.5 86.1667,236.5 83.5,236.5C 83.9119,228.589 83.9119,220.589 83.5,212.5 Z"/></g>
<g><path style="opacity:0.953" fill="#0f0f0f" d="M 85.5,213.5 C 89.1612,213.35 90.1612,214.85 88.5,218C 85.2732,217.944 84.2732,216.444 85.5,213.5 Z"/></g>
<g><path style="opacity:0.169" fill="#393939" d="M 12.5,256.5 C 11.5084,249.352 11.175,242.019 11.5,234.5C 11.1864,231.303 9.51978,229.137 6.5,228C 2.0719,221.785 0.738565,214.952 2.5,207.5C 3.3635,206.537 4.03017,206.537 4.5,207.5C 2.92535,213.346 3.42535,219.012 6,224.5C 8.5361,226.758 11.2028,228.758 14,230.5C 12.8303,239.059 12.3303,247.725 12.5,256.5 Z"/></g>
<g><path style="opacity:0.969" fill="#4f4f4f" d="M 196.5,218.5 C 197.735,218.721 198.735,219.388 199.5,220.5C 200.474,222.743 200.808,225.076 200.5,227.5C 199.167,227.5 197.833,227.5 196.5,227.5C 196.5,224.5 196.5,221.5 196.5,218.5 Z"/></g>
<g><path style="opacity:0.631" fill="#858585" d="M 25.5,189.5 C 25.8333,189.5 26.1667,189.5 26.5,189.5C 26.5,207.167 26.5,224.833 26.5,242.5C 23.5,242.5 20.5,242.5 17.5,242.5C 17.5,229.833 17.5,217.167 17.5,204.5C 18.1256,208.761 18.9589,213.094 20,217.5C 20.3333,216.167 20.6667,214.833 21,213.5C 21.6667,212.167 22.3333,212.167 23,213.5C 25.0902,205.667 25.9235,197.667 25.5,189.5 Z"/></g>
<g><path style="opacity:0.995" fill="#505050" d="M 72.5,218.5 C 73.8333,218.5 75.1667,218.5 76.5,218.5C 77.2631,221.141 77.4298,223.808 77,226.5C 75.5341,228.325 73.7008,228.825 71.5,228C 71.5203,224.854 71.8536,221.687 72.5,218.5 Z"/></g>
<g><path style="opacity:0.996" fill="#d0d5d3" d="M 166.5,211.5 C 165.323,213.103 165.489,214.436 167,215.5C 167.468,221.942 165.968,227.942 162.5,233.5C 161.575,234.562 160.575,234.562 159.5,233.5C 159.077,232.735 158.743,231.902 158.5,231C 163.487,223.938 164.654,216.438 162,208.5C 160.401,213.696 158.401,218.696 156,223.5C 153.404,225.02 150.571,225.853 147.5,226C 145.284,229.121 142.284,231.288 138.5,232.5C 137.833,232.167 137.167,231.833 136.5,231.5C 125.293,235.16 115.127,233.16 106,225.5C 105.667,225.833 105.333,226.167 105,226.5C 103.473,224.779 102.473,222.779 102,220.5C 101.907,225.042 102.74,229.376 104.5,233.5C 103.504,233.414 102.671,233.748 102,234.5C 98.8555,229.402 96.6888,223.902 95.5,218C 96.1667,216.667 96.8333,215.333 97.5,214C 96.8333,212.667 96.1667,211.333 95.5,210C 95.5699,209.235 95.9033,208.735 96.5,208.5C 96.62,209.586 97.2867,210.253 98.5,210.5C 100.353,209.811 101.519,208.478 102,206.5C 102.835,210.179 103.668,213.845 104.5,217.5C 108.129,218.314 111.129,220.148 113.5,223C 123.135,226.29 132.802,226.29 142.5,223C 147.119,220.219 150.452,216.386 152.5,211.5C 153.689,210.571 155.022,210.238 156.5,210.5C 157.031,207.763 157.864,205.096 159,202.5C 161.591,205.563 164.091,208.563 166.5,211.5 Z"/></g>
<g><path style="opacity:0.853" fill="#3d3d3d" d="M 203.5,220.5 C 206.518,220.335 209.518,220.502 212.5,221C 213.683,223.155 213.35,225.155 211.5,227C 208.843,227.175 206.176,227.008 203.5,226.5C 203.5,224.5 203.5,222.5 203.5,220.5 Z"/></g>
<g><path style="opacity:0.996" fill="#535353" d="M 65.5,219.5 C 66.8003,222.024 66.8003,224.691 65.5,227.5C 62.8427,224.867 62.8427,222.201 65.5,219.5 Z"/></g>
<g><path style="opacity:0.996" fill="#bebebf" d="M 237.5,227.5 C 237.5,217.833 237.5,208.167 237.5,198.5C 237.336,195.813 237.503,193.146 238,190.5C 240.874,190.959 243.208,192.293 245,194.5C 245.5,210.163 245.667,225.83 245.5,241.5C 242.833,241.5 240.167,241.5 237.5,241.5C 237.5,236.833 237.5,232.167 237.5,227.5 Z"/></g>
<g><path style="opacity:0.006" fill="#292929" d="M 252.5,171.5 C 252.802,179.556 252.469,187.556 251.5,195.5C 253.535,197.195 255.868,198.528 258.5,199.5C 262.206,206.426 263.372,213.76 262,221.5C 260.412,225.255 257.912,228.255 254.5,230.5C 253.438,232.022 252.771,233.688 252.5,235.5C 252.167,235.5 251.833,235.5 251.5,235.5C 250.5,235.5 249.5,235.5 248.5,235.5C 248.247,233.173 248.914,231.173 250.5,229.5C 255.126,228.041 258.293,225.041 260,220.5C 260.21,216.219 260.377,212.052 260.5,208C 259.194,205.427 257.527,203.094 255.5,201C 250.905,199.954 248.571,197.121 248.5,192.5C 249.5,192.5 250.5,192.5 251.5,192.5C 251.175,185.313 251.509,178.313 252.5,171.5 Z"/></g>
<g><path style="opacity:0.271" fill="#424141" d="M 171.5,212.5 C 174.5,212.5 177.5,212.5 180.5,212.5C 180.5,214.5 180.5,216.5 180.5,218.5C 179.448,218.649 178.448,218.483 177.5,218C 178.38,216.644 178.714,215.144 178.5,213.5C 177.167,213.5 175.833,213.5 174.5,213.5C 172.942,215.89 172.275,219.223 172.5,223.5C 171.499,229.939 173.499,231.606 178.5,228.5C 179.23,225.891 179.73,223.224 180,220.5C 180.126,224.641 180.292,228.641 180.5,232.5C 180.43,233.772 180.097,234.938 179.5,236C 177.167,236.667 174.833,236.667 172.5,236C 171.518,228.253 171.185,220.42 171.5,212.5 Z M 174.5,225.5 C 174.821,227.048 175.821,227.715 177.5,227.5C 177.5,225.833 177.5,224.167 177.5,222.5C 176.178,222.67 175.011,222.337 174,221.5C 173.235,223.066 173.402,224.399 174.5,225.5 Z"/></g>
<g><path style="opacity:0.004" fill="#000100" d="M 174.5,225.5 C 174.639,223.663 175.306,223.33 176.5,224.5C 176.043,225.298 175.376,225.631 174.5,225.5 Z"/></g>
<g><path style="opacity:0.995" fill="#383838" d="M 62.5,231.5 C 63.9187,230.549 65.5853,230.216 67.5,230.5C 65.4285,238.966 61.2618,240.299 55,234.5C 54.5172,233.552 54.3505,232.552 54.5,231.5C 55.8333,231.5 57.1667,231.5 58.5,231.5C 58.5,232.833 58.5,234.167 58.5,235.5C 60.9775,235.949 62.9775,235.283 64.5,233.5C 64.1445,232.478 63.4778,231.811 62.5,231.5 Z"/></g>
<g><path style="opacity:0.985" fill="#0f0f0f" d="M 86.5,230.5 C 88.2517,230.418 89.2517,231.251 89.5,233C 88.1255,236.069 86.4588,236.236 84.5,233.5C 85.1925,232.482 85.8592,231.482 86.5,230.5 Z"/></g>
<g><path style="opacity:0.899" fill="#a7a9a9" d="M 94.5,231.5 C 98.6987,232.866 100.699,235.866 100.5,240.5C 98.5,240.5 96.5,240.5 94.5,240.5C 94.5,237.5 94.5,234.5 94.5,231.5 Z"/></g>
<g><path style="opacity:0.782" fill="#9a9898" d="M 213.5,231.5 C 220.167,231.5 226.833,231.5 233.5,231.5C 233.5,234.5 233.5,237.5 233.5,240.5C 224.827,240.666 216.16,240.5 207.5,240C 210.371,237.751 212.371,234.918 213.5,231.5 Z"/></g>
<g><path style="opacity:0.017" fill="#0d0d0d" d="M 11.5,234.5 C 11.175,242.019 11.5084,249.352 12.5,256.5C 12.6107,257.117 12.944,257.617 13.5,258C 18.6835,258.174 23.6835,258.674 28.5,259.5C 25.2914,259.411 22.1248,259.744 19,260.5C 15.9924,260.254 13.3258,259.254 11,257.5C 10.1777,249.655 10.3443,241.989 11.5,234.5 Z"/></g>
<g><path style="opacity:0.996" fill="#bcbfbe" d="M 159.5,233.5 C 155.458,236.707 151.125,239.707 146.5,242.5C 145.77,244.341 145.103,246.175 144.5,248C 139.965,249.89 135.631,249.723 131.5,247.5C 130.377,248.544 129.044,249.21 127.5,249.5C 124.821,249.064 122.155,248.564 119.5,248C 118.944,245.763 117.944,243.763 116.5,242C 112.288,239.26 108.288,236.426 104.5,233.5C 102.74,229.376 101.907,225.042 102,220.5C 102.473,222.779 103.473,224.779 105,226.5C 105.333,226.167 105.667,225.833 106,225.5C 115.127,233.16 125.293,235.16 136.5,231.5C 137.167,231.833 137.833,232.167 138.5,232.5C 142.284,231.288 145.284,229.121 147.5,226C 150.571,225.853 153.404,225.02 156,223.5C 158.401,218.696 160.401,213.696 162,208.5C 164.654,216.438 163.487,223.938 158.5,231C 158.743,231.902 159.077,232.735 159.5,233.5 Z"/></g>
<g><path style="opacity:0.967" fill="#343434" d="M 197.5,230.5 C 198.5,230.5 199.5,230.5 200.5,230.5C 200.015,235.159 201.848,236.492 206,234.5C 206.483,233.552 206.649,232.552 206.5,231.5C 207.5,231.5 208.5,231.5 209.5,231.5C 205.477,240.654 200.811,240.821 195.5,232C 196.416,231.722 197.082,231.222 197.5,230.5 Z"/></g>
<g><path style="opacity:0.304" fill="#3d3d3d" d="M 18.5,230.5 C 24.2377,231.353 26.571,234.686 25.5,240.5C 23.1667,240.5 20.8333,240.5 18.5,240.5C 18.5,237.167 18.5,233.833 18.5,230.5 Z"/></g>
<g><path style="opacity:0.975" fill="#b9b8ba" d="M 70.5,231.5 C 72.1667,231.5 73.8333,231.5 75.5,231.5C 75.5,232.833 75.5,234.167 75.5,235.5C 76.5,235.5 77.5,235.5 78.5,235.5C 78.4208,236.93 78.7542,238.264 79.5,239.5C 74.8687,240.662 70.202,240.828 65.5,240C 68.5956,237.971 70.2623,235.138 70.5,231.5 Z"/></g>
<g><path style="opacity:0.472" fill="#5a5a5a" d="M 251.5,235.5 C 251.833,235.5 252.167,235.5 252.5,235.5C 253.351,240.761 253.351,246.094 252.5,251.5C 251.452,248.238 251.119,242.905 251.5,235.5 Z"/></g>
<g><path style="opacity:0.814" fill="#989898" d="M 29.5,231.5 C 36.5079,231.334 43.5079,231.5 50.5,232C 51.7334,235.234 53.7334,237.901 56.5,240C 47.5062,240.5 38.5062,240.666 29.5,240.5C 29.5,237.5 29.5,234.5 29.5,231.5 Z"/></g>
<g><path style="opacity:0.772" fill="#393939" d="M 191.5,235.5 C 190.604,234.494 189.938,234.494 189.5,235.5C 187.468,236.048 186.468,237.381 186.5,239.5C 189.518,239.665 192.518,239.498 195.5,239C 194.549,238.282 194.383,237.449 195,236.5C 196.543,238.378 198.376,239.878 200.5,241C 194.804,241.83 189.137,241.663 183.5,240.5C 185.27,239.18 185.603,237.68 184.5,236C 187.447,235.888 188.78,234.388 188.5,231.5C 190.167,231.5 191.833,231.5 193.5,231.5C 193.473,233.199 192.806,234.533 191.5,235.5 Z"/></g>
<g><path style="opacity:0.958" fill="#a7a7a5" d="M 83.5,238.5 C 86.1667,238.5 88.8333,238.5 91.5,238.5C 91.5,240.167 91.5,241.833 91.5,243.5C 88.5,243.5 85.5,243.5 82.5,243.5C 82.366,241.708 82.6993,240.042 83.5,238.5 Z"/></g>
<g><path style="opacity:0.261" fill="#2b2b2b" d="M 171.5,238.5 C 174.518,238.335 177.518,238.502 180.5,239C 181.554,240.388 181.72,241.888 181,243.5C 178.199,244.795 175.366,244.795 172.5,243.5C 171.548,241.955 171.215,240.288 171.5,238.5 Z"/></g>
<g><path style="opacity:0.95" fill="#b7b7b7" d="M 29.5,245.5 C 43.1667,245.5 56.8333,245.5 70.5,245.5C 70.5,248.167 70.5,250.833 70.5,253.5C 56.8333,253.5 43.1667,253.5 29.5,253.5C 29.5,250.833 29.5,248.167 29.5,245.5 Z"/></g>
<g><path style="opacity:0.985" fill="#acadac" d="M 192.5,244.5 C 206.5,244.5 220.5,244.5 234.5,244.5C 234.5,247.833 234.5,251.167 234.5,254.5C 220.5,254.5 206.5,254.5 192.5,254.5C 192.5,251.167 192.5,247.833 192.5,244.5 Z"/></g>
<g><path style="opacity:0.825" fill="#949494" d="M 236.5,244.5 C 239.833,244.5 243.167,244.5 246.5,244.5C 246.5,247.833 246.5,251.167 246.5,254.5C 243.167,254.5 239.833,254.5 236.5,254.5C 236.5,251.167 236.5,247.833 236.5,244.5 Z"/></g>
<g><path style="opacity:0.773" fill="#8f8f8f" d="M 94.5,244.5 C 96.5,244.5 98.5,244.5 100.5,244.5C 100.5,246.833 100.5,249.167 100.5,251.5C 98.5,251.5 96.5,251.5 94.5,251.5C 94.5,249.167 94.5,246.833 94.5,244.5 Z"/></g>
<g><path style="opacity:0.808" fill="#57617c" d="M 73.5,246.5 C 79.1667,246.5 84.8333,246.5 90.5,246.5C 90.3359,249.187 90.5026,251.854 91,254.5C 94.1292,255.13 97.2959,255.796 100.5,256.5C 99.1125,256.807 97.4458,256.807 95.5,256.5C 95.5,257.833 95.5,259.167 95.5,260.5C 89.1293,261.666 88.796,261.666 94.5,260.5C 94.5,259.167 94.5,257.833 94.5,256.5C 92.4727,256.662 90.4727,256.495 88.5,256C 90,253.833 89.5,252.333 87,251.5C 85.7387,251.759 84.7387,252.426 84,253.5C 80.6064,252.544 77.1064,252.211 73.5,252.5C 73.5,250.5 73.5,248.5 73.5,246.5 Z"/></g>
<g><path style="opacity:0.993" fill="#030304" d="M 75.5,247.5 C 78.694,247.176 79.694,248.342 78.5,251C 77.2068,251.49 75.8734,251.657 74.5,251.5C 74.4326,250.041 74.7659,248.708 75.5,247.5 Z"/></g>
<g><path style="opacity:0.484" fill="#252935" d="M 179.5,246.5 C 183.729,249.046 183.396,250.713 178.5,251.5C 179.035,254.238 178.035,256.072 175.5,257C 176.448,257.483 177.448,257.649 178.5,257.5C 178.5,258.5 178.5,259.5 178.5,260.5C 175.5,260.5 172.5,260.5 169.5,260.5C 169.5,258.833 169.5,257.167 169.5,255.5C 170.822,255.67 171.989,255.337 173,254.5C 173.497,251.854 173.664,249.187 173.5,246.5C 175.5,246.5 177.5,246.5 179.5,246.5 Z"/></g>
<g><path style="opacity:0.881" fill="#9a9a99" d="M 149.5,263.5 C 147.031,262.683 144.365,262.183 141.5,262C 142.416,261.722 143.082,261.222 143.5,260.5C 144.434,259.432 144.768,258.099 144.5,256.5C 145.492,256.672 146.158,256.338 146.5,255.5C 147.321,252.359 147.821,249.025 148,245.5C 150.257,243.954 152.424,242.288 154.5,240.5C 156.042,241.747 157.542,241.747 159,240.5C 159.167,241.833 159.333,243.167 159.5,244.5C 159.242,247.26 158.242,249.594 156.5,251.5C 158.362,253.724 159.362,256.391 159.5,259.5C 160.585,264.247 158.752,266.247 154,265.5C 152.014,265.431 150.514,264.765 149.5,263.5 Z"/></g>
<g><path style="opacity:0.741" fill="#595959" d="M 17.5,244.5 C 20.5,244.5 23.5,244.5 26.5,244.5C 26.5,247.833 26.5,251.167 26.5,254.5C 23.5,254.5 20.5,254.5 17.5,254.5C 17.5,251.167 17.5,247.833 17.5,244.5 Z"/></g>
<g><path style="opacity:0.208" fill="#202020" d="M 18.5,246.5 C 20.8333,246.5 23.1667,246.5 25.5,246.5C 25.5,248.5 25.5,250.5 25.5,252.5C 23.1667,252.5 20.8333,252.5 18.5,252.5C 18.5,250.5 18.5,248.5 18.5,246.5 Z"/></g>
<g><path style="opacity:0.99" fill="#727172" d="M 29.5,245.5 C 43.3234,244.504 57.3234,244.171 71.5,244.5C 71.5,247.833 71.5,251.167 71.5,254.5C 57.3234,254.829 43.3234,254.496 29.5,253.5C 43.1667,253.5 56.8333,253.5 70.5,253.5C 70.5,250.833 70.5,248.167 70.5,245.5C 56.8333,245.5 43.1667,245.5 29.5,245.5 Z"/></g>
<g><path style="opacity:0.643" fill="#6d6d6d" d="M 33.5,256.5 C 39.5,256.5 45.5,256.5 51.5,256.5C 51.1667,257.167 50.8333,257.833 50.5,258.5C 48.2965,259.946 45.9631,260.78 43.5,261C 44.0442,260.283 44.7109,259.783 45.5,259.5C 46.0431,259.44 46.3764,259.107 46.5,258.5C 42.0178,257.833 37.6845,257.166 33.5,256.5 Z"/></g>
<g><path style="opacity:0.659" fill="#9fa5a2" d="M 51.5,256.5 C 57.1764,256.334 62.8431,256.501 68.5,257C 66.9573,260 64.9573,260.666 62.5,259C 58.5138,258.501 54.5138,258.334 50.5,258.5C 50.8333,257.833 51.1667,257.167 51.5,256.5 Z"/></g>
<g><path style="opacity:0.014" fill="#141414" d="M 144.5,256.5 C 144.768,258.099 144.434,259.432 143.5,260.5C 140.945,261.413 138.279,262.08 135.5,262.5C 131.837,262.056 128.171,261.722 124.5,261.5C 124.5,259.833 124.5,258.167 124.5,256.5C 131.327,256.744 137.993,256.744 144.5,256.5 Z"/></g>
<g><path style="opacity:0.137" fill="#464646" d="M 229.5,268.5 C 229.5,265.5 229.5,262.5 229.5,259.5C 226.313,258.194 222.98,258.194 219.5,259.5C 220.506,260.396 220.506,261.062 219.5,261.5C 212.624,258.01 205.624,257.676 198.5,260.5C 197.019,259.52 195.685,258.353 194.5,257C 206.495,256.5 218.495,256.333 230.5,256.5C 230.666,264.174 230.5,271.841 230,279.5C 229.731,276.648 228.897,273.982 227.5,271.5C 227.846,270.304 228.346,270.304 229,271.5C 229.483,270.552 229.649,269.552 229.5,268.5 Z"/></g>
<g><path style="opacity:0.992" fill="#5e0a0e" d="M 72.5,257.5 C 74.9479,256.527 77.6146,256.194 80.5,256.5C 80.8134,259.247 80.48,261.914 79.5,264.5C 78.8933,264.376 78.56,264.043 78.5,263.5C 79.4614,261.735 79.7947,259.735 79.5,257.5C 77.1667,257.5 74.8333,257.5 72.5,257.5 Z"/></g>
<g><path style="opacity:0.945" fill="#ad1115" d="M 183.5,256.5 C 188.538,255.448 192.538,256.948 195.5,261C 193.583,260.973 191.916,260.139 190.5,258.5C 188.183,260.316 186.016,262.316 184,264.5C 183.503,261.854 183.336,259.187 183.5,256.5 Z"/></g>
<g><path style="opacity:0.992" fill="#be0c14" d="M 72.5,257.5 C 74.8333,257.5 77.1667,257.5 79.5,257.5C 79.7947,259.735 79.4614,261.735 78.5,263.5C 76.6121,262.06 74.9454,260.394 73.5,258.5C 67.6092,262.392 67.2758,262.058 72.5,257.5 Z"/></g>
<g><path style="opacity:0.6" fill="#444c5f" d="M 179.5,246.5 C 183.167,246.5 186.833,246.5 190.5,246.5C 190.5,248.5 190.5,250.5 190.5,252.5C 186.901,252.738 186.567,251.738 189.5,249.5C 188.332,247.783 186.665,247.116 184.5,247.5C 184.227,249.451 184.893,250.951 186.5,252C 184.236,252.236 182.069,252.736 180,253.5C 179.503,256.146 179.336,258.813 179.5,261.5C 173.833,261.5 168.167,261.5 162.5,261.5C 162.5,259.5 162.5,257.5 162.5,255.5C 164.833,255.5 167.167,255.5 169.5,255.5C 169.5,257.167 169.5,258.833 169.5,260.5C 172.5,260.5 175.5,260.5 178.5,260.5C 178.5,259.5 178.5,258.5 178.5,257.5C 177.448,257.649 176.448,257.483 175.5,257C 178.035,256.072 179.035,254.238 178.5,251.5C 183.396,250.713 183.729,249.046 179.5,246.5 Z"/></g>
<g><path style="opacity:0.97" fill="#000000" d="M 164.5,256.5 C 167.166,256.066 168.333,257.066 168,259.5C 164.403,261.066 163.237,260.066 164.5,256.5 Z"/></g>
<g><path style="opacity:0.827" fill="#616262" d="M 118.5,259.5 C 117.199,257.982 116.366,256.316 116,254.5C 126.084,255.486 136.251,255.819 146.5,255.5C 146.158,256.338 145.492,256.672 144.5,256.5C 137.993,256.744 131.327,256.744 124.5,256.5C 124.5,258.167 124.5,259.833 124.5,261.5C 128.171,261.722 131.837,262.056 135.5,262.5C 138.279,262.08 140.945,261.413 143.5,260.5C 143.082,261.222 142.416,261.722 141.5,262C 144.365,262.183 147.031,262.683 149.5,263.5C 134.326,263.027 119.326,263.693 104.5,265.5C 104.177,261.774 104.511,258.107 105.5,254.5C 106.086,254.291 106.586,253.957 107,253.5C 106.589,255.195 106.089,257.028 105.5,259C 105.559,260.436 105.892,261.769 106.5,263C 111.426,264.251 115.426,263.085 118.5,259.5 Z"/></g>
<g><path style="opacity:0.979" fill="#040404" d="M 118.5,259.5 C 119.536,256.044 121.203,255.71 123.5,258.5C 122.218,260.704 120.551,261.038 118.5,259.5 Z"/></g>
<g><path style="opacity:0.735" fill="#595959" d="M 146.5,269.5 C 146.5,268.5 146.5,267.5 146.5,266.5C 136.81,266.168 127.144,266.502 117.5,267.5C 121.445,268.491 125.445,268.824 129.5,268.5C 125.354,269.647 121.02,269.814 116.5,269C 115.359,268.259 115.359,267.425 116.5,266.5C 126.833,265.167 137.167,265.167 147.5,266.5C 148.777,267.922 148.443,268.922 146.5,269.5 Z"/></g>
<g><path style="opacity:0.204" fill="#2a2a29" d="M 146.5,269.5 C 140.804,269.553 135.138,269.22 129.5,268.5C 125.445,268.824 121.445,268.491 117.5,267.5C 127.144,266.502 136.81,266.168 146.5,266.5C 146.5,267.5 146.5,268.5 146.5,269.5 Z"/></g>
<g><path style="opacity:0.992" fill="#a11212" d="M 62.5,266.5 C 64.6569,267.053 64.4903,268.053 62,269.5C 61.5304,268.423 61.6971,267.423 62.5,266.5 Z"/></g>
<g><path style="opacity:0.925" fill="#5094cf" d="M 57.5,266.5 C 58.7759,267.386 58.7759,268.386 57.5,269.5C 56.4376,268.575 56.4376,267.575 57.5,266.5 Z"/></g>
<g><path style="opacity:0.115" fill="#252423" d="M 171.5,264.5 C 174.833,264.5 178.167,264.5 181.5,264.5C 181.5,270.5 181.5,276.5 181.5,282.5C 178.167,281.167 174.833,281.167 171.5,282.5C 171.5,276.5 171.5,270.5 171.5,264.5 Z M 173.5,269.5 C 173.335,272.85 173.502,276.183 174,279.5C 175.699,278.594 177.533,278.261 179.5,278.5C 179.5,275.5 179.5,272.5 179.5,269.5C 177.5,269.5 175.5,269.5 173.5,269.5 Z"/></g>
<g><path style="opacity:0.338" fill="#4b4b4b" d="M 235.5,261.5 C 235.876,275.419 235.876,289.419 235.5,303.5C 196.321,304.216 195.654,304.216 233.5,303.5C 233.5,288.167 233.5,272.833 233.5,257.5C 239.919,257.581 246.252,257.414 252.5,257C 247.019,258.449 241.352,258.949 235.5,258.5C 235.5,259.5 235.5,260.5 235.5,261.5 Z"/></g>
<g><path style="opacity:0.996" fill="#343434" d="M 211.5,263.5 C 212.251,262.427 213.251,262.26 214.5,263C 216.377,265.106 218.71,266.439 221.5,267C 226.748,274.351 227.581,282.184 224,290.5C 221.303,294.414 217.636,297.081 213,298.5C 212.5,298.333 212,298.167 211.5,298C 222.507,290.475 225.007,280.642 219,268.5C 216.618,266.611 214.118,264.945 211.5,263.5 Z"/></g>
<g><path style="opacity:0.752" fill="#454545" d="M 33.5,256.5 C 37.6845,257.166 42.0178,257.833 46.5,258.5C 46.3764,259.107 46.0431,259.44 45.5,259.5C 41.7016,258.517 37.7016,258.183 33.5,258.5C 33.1758,262.555 33.5091,266.555 34.5,270.5C 35.3333,269.5 36.1667,268.5 37,267.5C 36.9678,269.598 36.3011,271.598 35,273.5C 34.1427,281.829 33.8093,290.162 34,298.5C 36.4009,299.602 38.9009,299.769 41.5,299C 40.3044,298.346 40.3044,297.846 41.5,297.5C 42.646,298.145 43.646,298.978 44.5,300C 40.5138,300.499 36.5138,300.666 32.5,300.5C 32.1707,285.657 32.504,270.99 33.5,256.5 Z"/></g>
<g><path style="opacity:0.996" fill="#3a3b3d" d="M 51.5,266.5 C 52.0431,266.56 52.3764,266.893 52.5,267.5C 46.395,275.593 46.0617,283.926 51.5,292.5C 49.1726,292.044 47.3393,290.377 46,287.5C 42.7587,279.121 44.5921,272.121 51.5,266.5 Z"/></g>
<g><path style="opacity:0.996" fill="#3c3d3c" d="M 56.5,273.5 C 60.9671,273.133 65.3004,273.633 69.5,275C 71.9734,276.925 71.9734,278.758 69.5,280.5C 70.8334,281.62 71.3334,282.953 71,284.5C 66.5844,288.95 61.751,289.783 56.5,287C 51.2985,282.548 51.2985,278.048 56.5,273.5 Z"/></g>
<g><path style="opacity:0.37" fill="#383839" d="M 82.5,264.5 C 85.7766,264.216 88.9433,264.549 92,265.5C 92.4994,271.157 92.6661,276.824 92.5,282.5C 89.1667,281.167 85.8333,281.167 82.5,282.5C 82.5,276.5 82.5,270.5 82.5,264.5 Z M 85.5,269.5 C 84.7666,272.075 84.7666,274.408 85.5,276.5C 86.7969,274.027 86.7969,271.693 85.5,269.5 Z"/></g>
<g><path style="opacity:0.01" fill="#020202" d="M 90.5,270.5 C 89.1667,271.833 89.1667,273.167 90.5,274.5C 90.5,276.5 90.5,278.5 90.5,280.5C 88.1667,280.5 85.8333,280.5 83.5,280.5C 83.5,275.5 83.5,270.5 83.5,265.5C 85.8333,265.5 88.1667,265.5 90.5,265.5C 90.5,267.167 90.5,268.833 90.5,270.5 Z M 85.5,269.5 C 84.7666,272.075 84.7666,274.408 85.5,276.5C 86.7969,274.027 86.7969,271.693 85.5,269.5 Z"/></g>
<g><path style="opacity:0.979" fill="#3a3c3d" d="M 198.5,272.5 C 203.463,272.405 207.63,274.071 211,277.5C 211.954,283.22 209.621,286.886 204,288.5C 201.26,287.718 198.426,287.218 195.5,287C 192.142,285.165 191.809,282.998 194.5,280.5C 193.833,279.5 193.167,278.5 192.5,277.5C 194.162,275.348 196.162,273.682 198.5,272.5 Z"/></g>
<g><path style="opacity:0.251" fill="#464646" d="M 12.5,256.5 C 18.1064,257.407 23.773,257.74 29.5,257.5C 29.5,272.833 29.5,288.167 29.5,303.5C 29.1667,303.5 28.8333,303.5 28.5,303.5C 28.5,288.833 28.5,274.167 28.5,259.5C 23.6835,258.674 18.6835,258.174 13.5,258C 12.944,257.617 12.6107,257.117 12.5,256.5 Z"/></g>
<g><path style="opacity:0.996" fill="#373737" d="M 49.5,262.5 C 50.552,262.351 51.552,262.517 52.5,263C 42.4474,268.815 39.2808,277.315 43,288.5C 44.4669,291.266 46.3002,293.766 48.5,296C 44.0643,295.928 40.8976,293.761 39,289.5C 38.2706,285.24 37.7706,280.907 37.5,276.5C 37.9931,273.515 39.1597,270.848 41,268.5C 44.2698,267.055 47.1032,265.055 49.5,262.5 Z"/></g>
<g><path style="opacity:0.651" fill="#5f6060" d="M 105.5,281.5 C 95.805,281.45 93.305,277.117 98,268.5C 101.215,266.744 104.715,266.577 108.5,268C 106.318,272.639 107.651,275.639 112.5,277C 109.437,278.066 107.937,280.233 108,283.5C 107.005,282.934 106.172,282.267 105.5,281.5 Z"/></g>
<g><path style="opacity:0.206" fill="#2e2e2e" d="M 105.5,281.5 C 98.7634,280.747 96.4301,277.08 98.5,270.5C 100.743,269.526 103.076,269.192 105.5,269.5C 105.153,273.096 105.82,276.429 107.5,279.5C 107.253,280.713 106.586,281.38 105.5,281.5 Z"/></g>
<g><path style="opacity:0.991" fill="#bf100d" d="M 142.5,276.5 C 142.813,280.042 142.479,283.375 141.5,286.5C 134.91,286.189 128.41,286.522 122,287.5C 121.667,297.167 121.333,306.833 121,316.5C 120.5,303.171 120.333,289.837 120.5,276.5C 127.833,276.5 135.167,276.5 142.5,276.5 Z"/></g>
<g><path style="opacity:0.596" fill="#939295" d="M 101.5,284.5 C 106.303,286.71 106.469,289.044 102,291.5C 101.1,290.23 99.9337,289.23 98.5,288.5C 100.288,287.717 101.288,286.384 101.5,284.5 Z"/></g>
<g><path style="opacity:0.847" fill="#7e7e7e" d="M 111.5,281.5 C 113.5,281.5 115.5,281.5 117.5,281.5C 116.736,284.787 114.903,287.454 112,289.5C 111.503,286.854 111.336,284.187 111.5,281.5 Z"/></g>
<g><path style="opacity:0.761" fill="#3b393a" d="M 145.5,281.5 C 147.833,281.5 150.167,281.5 152.5,281.5C 152.813,284.247 152.48,286.914 151.5,289.5C 149.098,287.103 147.098,284.436 145.5,281.5 Z"/></g>
<g><path style="opacity:0.522" fill="#2c3436" d="M 168.5,285.5 C 171.361,285.342 174.028,286.008 176.5,287.5C 178.056,286.453 179.723,285.786 181.5,285.5C 182.087,291.636 180.42,292.636 176.5,288.5C 174.422,290.986 171.755,291.986 168.5,291.5C 168.5,289.5 168.5,287.5 168.5,285.5 Z"/></g>
<g><path style="opacity:0.565" fill="#2a3133" d="M 82.5,285.5 C 84.0936,285.92 85.5936,286.586 87,287.5C 89.2097,285.889 91.7097,285.222 94.5,285.5C 94.5,287.5 94.5,289.5 94.5,291.5C 91.5918,291.738 89.2585,290.738 87.5,288.5C 83.5357,292.587 81.869,291.587 82.5,285.5 Z"/></g>
<g><path style="opacity:0.996" fill="#353539" d="M 210.5,267.5 C 210.897,266.475 211.563,266.308 212.5,267C 221.833,276.338 221.666,285.504 212,294.5C 214.292,290.508 215.459,286.008 215.5,281C 215.872,275.593 214.205,271.093 210.5,267.5 Z"/></g>
<g><path style="opacity:0.839" fill="#474747" d="M 90.5,293.5 C 91.8232,296.938 92.4898,300.771 92.5,305C 92.3333,308.833 92.1667,312.667 92,316.5C 89.1963,318.344 86.0297,319.011 82.5,318.5C 82.5,310.5 82.5,302.5 82.5,294.5C 86.8383,294.622 87.1716,294.955 83.5,295.5C 83.5,302.5 83.5,309.5 83.5,316.5C 85.8333,316.5 88.1667,316.5 90.5,316.5C 91.1079,309.052 90.4413,301.885 88.5,295C 89.4158,294.722 90.0825,294.222 90.5,293.5 Z"/></g>
<g><path style="opacity:0.98" fill="#e6c310" d="M 124.5,289.5 C 129.5,289.5 134.5,289.5 139.5,289.5C 139.5,298.833 139.5,308.167 139.5,317.5C 134.5,317.5 129.5,317.5 124.5,317.5C 124.5,308.167 124.5,298.833 124.5,289.5 Z"/></g>
<g><path style="opacity:0.273" fill="#494949" d="M 106.5,293.5 C 107.468,295.607 107.802,297.941 107.5,300.5C 102.907,301.582 99.9073,299.915 98.5,295.5C 101.317,295.903 103.984,295.237 106.5,293.5 Z"/></g>
<g><path style="opacity:0.853" fill="#7f7e80" d="M 110.5,295.5 C 111.919,294.549 113.585,294.216 115.5,294.5C 115.663,296.857 115.497,299.19 115,301.5C 114.25,300.874 113.416,300.374 112.5,300C 114.056,297.499 113.389,295.999 110.5,295.5 Z"/></g>
<g><path style="opacity:0.502" fill="#545454" d="M 78.5,292.5 C 80.369,294.635 81.0356,297.302 80.5,300.5C 76.4862,300.666 72.4862,300.499 68.5,300C 72.8445,298.819 76.1779,296.319 78.5,292.5 Z"/></g>
<g><path style="opacity:0.412" fill="#515151" d="M 190.5,298.5 C 192.179,298.892 193.846,299.392 195.5,300C 191.514,300.499 187.514,300.666 183.5,300.5C 183.335,297.482 183.502,294.482 184,291.5C 186.372,293.703 188.539,296.037 190.5,298.5 Z"/></g>
<g><path style="opacity:0.008" fill="#0f0f0f" d="M 190.5,298.5 C 188.735,299.461 186.735,299.795 184.5,299.5C 184.34,297.801 184.506,296.134 185,294.5C 186.451,296.464 188.284,297.797 190.5,298.5 Z"/></g>
<g><path style="opacity:0.404" fill="#3c3c3c" d="M 229.5,281.5 C 230.49,287.645 230.823,293.978 230.5,300.5C 226.486,300.666 222.486,300.499 218.5,300C 225.312,295.691 228.979,289.524 229.5,281.5 Z M 228.5,291.5 C 227.565,293.861 226.232,296.028 224.5,298C 226.134,298.494 227.801,298.66 229.5,298.5C 229.802,295.941 229.468,293.607 228.5,291.5 Z"/></g>
<g><path style="opacity:0.376" fill="#5b5c5c" d="M 95.5,316.5 C 94.3448,309.345 94.1782,302.012 95,294.5C 95.6924,295.025 96.1924,295.692 96.5,296.5C 95.5383,303.108 95.2049,309.774 95.5,316.5 Z"/></g>
<g><path style="opacity:0.992" fill="#8c0b0e" d="M 142.5,276.5 C 143.66,289.66 143.827,302.994 143,316.5C 142.809,306.423 142.309,296.423 141.5,286.5C 142.479,283.375 142.813,280.042 142.5,276.5 Z"/></g>
<g><path style="opacity:0.276" fill="#3e3e3e" d="M 171.5,293.5 C 174.764,294.324 178.098,294.658 181.5,294.5C 181.5,302.5 181.5,310.5 181.5,318.5C 178.167,318.5 174.833,318.5 171.5,318.5C 171.5,310.167 171.5,301.833 171.5,293.5 Z"/></g>
<g><path style="opacity:0.019" fill="#050505" d="M 173.5,296.5 C 175.5,296.5 177.5,296.5 179.5,296.5C 179.5,303.167 179.5,309.833 179.5,316.5C 177.5,316.5 175.5,316.5 173.5,316.5C 173.5,309.833 173.5,303.167 173.5,296.5 Z"/></g>
<g><path style="opacity:0.455" fill="#545454" d="M 185.5,306.5 C 185.5,307.5 185.5,308.5 185.5,309.5C 186.134,317.903 185.467,325.903 183.5,333.5C 184.474,323.582 184.807,313.582 184.5,303.5C 190.509,303.334 196.509,303.501 202.5,304C 196.412,303.874 190.745,304.708 185.5,306.5 Z"/></g>
<g><path style="opacity:0.305" fill="#575757" d="M 95.5,316.5 C 96.8333,316.5 98.1667,316.5 99.5,316.5C 99.7768,311.767 99.4435,307.1 98.5,302.5C 98.8457,301.304 99.3457,301.304 100,302.5C 100.499,307.823 100.666,313.156 100.5,318.5C 98.2188,318.923 96.5521,318.256 95.5,316.5 Z"/></g>
<g><path style="opacity:0.782" fill="#2f2f2f" d="M 103.5,303.5 C 107.838,303.622 108.172,303.955 104.5,304.5C 104.222,306.346 104.889,307.68 106.5,308.5C 107.487,311.768 107.82,315.102 107.5,318.5C 105.833,318.5 104.167,318.5 102.5,318.5C 102.221,313.405 102.555,308.405 103.5,303.5 Z"/></g>
<g><path style="opacity:0.457" fill="#4e4e4e" d="M 29.5,303.5 C 46.1667,303.5 62.8333,303.5 79.5,303.5C 79.1926,313.582 79.5259,323.582 80.5,333.5C 79.8333,333.5 79.1667,333.5 78.5,333.5C 78.5,323.833 78.5,314.167 78.5,304.5C 62.4983,305 46.4983,305.167 30.5,305C 29.944,304.617 29.6107,304.117 29.5,303.5 Z"/></g>
<g><path style="opacity:0.325" fill="#414141" d="M 156.5,304.5 C 157.568,303.566 158.901,303.232 160.5,303.5C 160.5,308.5 160.5,313.5 160.5,318.5C 159.167,318.5 157.833,318.5 156.5,318.5C 156.335,315.15 156.502,311.817 157,308.5C 157.179,311.553 157.679,314.553 158.5,317.5C 158.833,316 159.167,314.5 159.5,313C 158.979,310.659 158.979,308.492 159.5,306.5C 158.995,305.081 157.995,304.415 156.5,304.5 Z"/></g>
<g><path style="opacity:0.602" fill="#4e4e4e" d="M 167.5,294.5 C 168.822,297.768 169.489,301.435 169.5,305.5C 169.333,309.167 169.167,312.833 169,316.5C 167.246,318.25 165.079,318.917 162.5,318.5C 162.103,313.041 162.603,307.708 164,302.5C 164.499,307.489 164.666,312.489 164.5,317.5C 166.124,317.64 167.29,316.973 168,315.5C 168.667,309.5 168.667,303.5 168,297.5C 167.346,298.696 166.846,298.696 166.5,297.5C 167.127,296.583 167.461,295.583 167.5,294.5 Z"/></g>
<g><path style="opacity:0.051" fill="#111111" d="M 28.5,303.5 C 28.8333,303.5 29.1667,303.5 29.5,303.5C 29.6107,304.117 29.944,304.617 30.5,305C 46.4983,305.167 62.4983,305 78.5,304.5C 78.5,314.167 78.5,323.833 78.5,333.5C 77.5064,324.348 77.1731,315.015 77.5,305.5C 61.5158,306.552 45.5158,306.719 29.5,306C 28.7476,305.329 28.4142,304.496 28.5,303.5 Z"/></g>
<g><path style="opacity:0.824" fill="#8a8c9a" d="M 114.5,315.5 C 115.5,315.5 116.5,315.5 117.5,315.5C 117.5,316.5 117.5,317.5 117.5,318.5C 116.5,318.5 115.5,318.5 114.5,318.5C 114.5,317.5 114.5,316.5 114.5,315.5 Z"/></g>
<g><path style="opacity:0.891" fill="#5f5f5f" d="M 171.5,320.5 C 174.833,320.5 178.167,320.5 181.5,320.5C 181.54,323.881 181.207,327.214 180.5,330.5C 177.5,330.5 174.5,330.5 171.5,330.5C 171.5,327.167 171.5,323.833 171.5,320.5 Z"/></g>
<g><path style="opacity:0.996" fill="#bababb" d="M 94.5,320.5 C 119.167,320.5 143.833,320.5 168.5,320.5C 168.5,323.5 168.5,326.5 168.5,329.5C 143.833,329.5 119.167,329.5 94.5,329.5C 94.5,326.5 94.5,323.5 94.5,320.5 Z"/></g>
<g><path style="opacity:0.764" fill="#4a4a4a" d="M 82.5,320.5 C 85.5,320.5 88.5,320.5 91.5,320.5C 91.5,323.833 91.5,327.167 91.5,330.5C 88.5,330.5 85.5,330.5 82.5,330.5C 82.5,327.167 82.5,323.833 82.5,320.5 Z"/></g>
<g><path style="opacity:0.063" fill="#0a0a0a" d="M 83.5,322.5 C 85.8333,322.5 88.1667,322.5 90.5,322.5C 90.5,324.5 90.5,326.5 90.5,328.5C 88.1667,328.5 85.8333,328.5 83.5,328.5C 83.5,326.5 83.5,324.5 83.5,322.5 Z"/></g>
<g><path style="opacity:0.035" fill="#090909" d="M 78.5,333.5 C 79.1667,333.5 79.8333,333.5 80.5,333.5C 89.9856,334.494 99.6522,334.827 109.5,334.5C 99.6753,335.658 89.6753,335.825 79.5,335C 78.944,334.617 78.6107,334.117 78.5,333.5 Z"/></g>
<g><path style="opacity:0.034" fill="#070707" d="M 185.5,309.5 C 186.821,317.676 186.821,326.009 185.5,334.5C 174.372,335.821 163.372,335.821 152.5,334.5C 163.014,334.828 173.347,334.494 183.5,333.5C 185.467,325.903 186.134,317.903 185.5,309.5 Z"/></g>
<g><path style="opacity:0.153" fill="#494949" d="M 183.5,333.5 C 173.347,334.494 163.014,334.828 152.5,334.5C 151.448,334.351 150.448,334.517 149.5,335C 142.456,343.901 133.456,346.567 122.5,343C 119.305,341.305 116.972,338.805 115.5,335.5C 113.591,334.652 111.591,334.318 109.5,334.5C 99.6522,334.827 89.9856,334.494 80.5,333.5C 91.1993,333.788 101.866,333.454 112.5,332.5C 113.938,332.719 115.271,333.219 116.5,334C 117.928,336.185 119.595,338.185 121.5,340C 129.025,343.588 136.358,343.255 143.5,339C 145.129,335.536 147.796,333.369 151.5,332.5C 162.134,333.454 172.801,333.788 183.5,333.5 Z"/></g>
<g><path style="opacity:0.004" fill="#000100" d="M -0.5,348.5 C 0.166667,348.5 0.5,348.833 0.5,349.5C 0.166667,349.167 -0.166667,348.833 -0.5,348.5 Z"/></g>
</svg>
